# MagicaVoxel @ Ephtracy

# group
o 

# material
mtllib drop.mtl
usemtl palette

# normals
vn -1 0 0
vn 1 0 0
vn 0 0 1
vn 0 0 -1
vn 0 -1 0
vn 0 1 0

# texcoords
vt 0.583984 0.5
vt 0.978516 0.5
vt 0.994141 0.5

# verts
v 0 2 0
v 0 2 -3
v 0 2.5 0
v 0 2.5 -3
v 0.1 2.5 -0.1
v 0.1 2.5 -0.2
v 0.1 2.5 -2.8
v 0.1 2.5 -2.9
v 0.1 2.6 -0.1
v 0.1 2.6 -0.2
v 0.1 2.6 -2.8
v 0.1 2.6 -2.9
v 2.7 2.1 -0.3
v 2.7 2.1 -2.7
v 2.7 2.5 -0.3
v 2.7 2.5 -2.7
v 2.8 2.5 -0.1
v 2.8 2.5 -0.2
v 2.8 2.5 -2.8
v 2.8 2.5 -2.9
v 2.8 2.6 -0.1
v 2.8 2.6 -0.2
v 2.8 2.6 -2.8
v 2.8 2.6 -2.9
v 0.2 2.5 -0.1
v 0.2 2.5 -0.2
v 0.2 2.5 -2.8
v 0.2 2.5 -2.9
v 0.2 2.6 -0.1
v 0.2 2.6 -0.2
v 0.2 2.6 -2.8
v 0.2 2.6 -2.9
v 0.3 2.1 -0.3
v 0.3 2.1 -2.7
v 0.3 2.5 -0.3
v 0.3 2.5 -2.7
v 2.9 2.5 -0.1
v 2.9 2.5 -0.2
v 2.9 2.5 -2.8
v 2.9 2.5 -2.9
v 2.9 2.6 -0.1
v 2.9 2.6 -0.2
v 2.9 2.6 -2.8
v 2.9 2.6 -2.9
v 3 2 0
v 3 2 -3
v 3 2.5 0
v 3 2.5 -3
v 0 2 0
v 0 2.5 0
v 3 2 0
v 3 2.5 0
v 0.1 2.5 -0.1
v 0.1 2.6 -0.1
v 0.2 2.5 -0.1
v 0.2 2.6 -0.1
v 2.8 2.5 -0.1
v 2.8 2.6 -0.1
v 2.9 2.5 -0.1
v 2.9 2.6 -0.1
v 0.3 2.1 -2.7
v 0.3 2.5 -2.7
v 2.7 2.1 -2.7
v 2.7 2.5 -2.7
v 0.1 2.5 -2.8
v 0.1 2.6 -2.8
v 0.2 2.5 -2.8
v 0.2 2.6 -2.8
v 2.8 2.5 -2.8
v 2.8 2.6 -2.8
v 2.9 2.5 -2.8
v 2.9 2.6 -2.8
v 0.1 2.5 -0.2
v 0.1 2.6 -0.2
v 0.2 2.5 -0.2
v 0.2 2.6 -0.2
v 2.8 2.5 -0.2
v 2.8 2.6 -0.2
v 2.9 2.5 -0.2
v 2.9 2.6 -0.2
v 0.3 2.1 -0.3
v 0.3 2.5 -0.3
v 2.7 2.1 -0.3
v 2.7 2.5 -0.3
v 0.1 2.5 -2.9
v 0.1 2.6 -2.9
v 0.2 2.5 -2.9
v 0.2 2.6 -2.9
v 2.8 2.5 -2.9
v 2.8 2.6 -2.9
v 2.9 2.5 -2.9
v 2.9 2.6 -2.9
v 0 2 -3
v 0 2.5 -3
v 3 2 -3
v 3 2.5 -3
v 0 2 0
v 3 2 0
v 0.3 2 -0.3
v 2.7 2 -0.3
v 0.3 2 -2.7
v 2.7 2 -2.7
v 0 2 -3
v 3 2 -3
v 0.3 2.1 -0.3
v 2.7 2.1 -0.3
v 0.3 2.1 -2.7
v 2.7 2.1 -2.7
v 0 2.5 0
v 3 2.5 0
v 0.1 2.5 -0.1
v 0.2 2.5 -0.1
v 2.8 2.5 -0.1
v 2.9 2.5 -0.1
v 0.1 2.5 -0.2
v 0.2 2.5 -0.2
v 2.8 2.5 -0.2
v 2.9 2.5 -0.2
v 0.3 2.5 -0.3
v 2.7 2.5 -0.3
v 0.3 2.5 -2.7
v 2.7 2.5 -2.7
v 0.1 2.5 -2.8
v 0.2 2.5 -2.8
v 2.8 2.5 -2.8
v 2.9 2.5 -2.8
v 0.1 2.5 -2.9
v 0.2 2.5 -2.9
v 2.8 2.5 -2.9
v 2.9 2.5 -2.9
v 0 2.5 -3
v 3 2.5 -3
v 0.1 2.6 -0.1
v 0.2 2.6 -0.1
v 2.8 2.6 -0.1
v 2.9 2.6 -0.1
v 0.1 2.6 -0.2
v 0.2 2.6 -0.2
v 2.8 2.6 -0.2
v 2.9 2.6 -0.2
v 0.1 2.6 -2.8
v 0.2 2.6 -2.8
v 2.8 2.6 -2.8
v 2.9 2.6 -2.8
v 0.1 2.6 -2.9
v 0.2 2.6 -2.9
v 2.8 2.6 -2.9
v 2.9 2.6 -2.9

# faces
f 3/1/1 2/1/1 1/1/1
f 4/1/1 2/1/1 3/1/1
f 9/2/1 6/2/1 5/2/1
f 10/2/1 6/2/1 9/2/1
f 11/2/1 8/2/1 7/2/1
f 12/2/1 8/2/1 11/2/1
f 15/1/1 14/1/1 13/1/1
f 16/1/1 14/1/1 15/1/1
f 21/2/1 18/2/1 17/2/1
f 22/2/1 18/2/1 21/2/1
f 23/2/1 20/2/1 19/2/1
f 24/2/1 20/2/1 23/2/1
f 25/2/2 26/2/2 29/2/2
f 29/2/2 26/2/2 30/2/2
f 27/2/2 28/2/2 31/2/2
f 31/2/2 28/2/2 32/2/2
f 33/1/2 34/1/2 35/1/2
f 35/1/2 34/1/2 36/1/2
f 37/2/2 38/2/2 41/2/2
f 41/2/2 38/2/2 42/2/2
f 39/2/2 40/2/2 43/2/2
f 43/2/2 40/2/2 44/2/2
f 45/1/2 46/1/2 47/1/2
f 47/1/2 46/1/2 48/1/2
f 51/1/3 50/1/3 49/1/3
f 52/1/3 50/1/3 51/1/3
f 55/2/3 54/2/3 53/2/3
f 56/2/3 54/2/3 55/2/3
f 59/2/3 58/2/3 57/2/3
f 60/2/3 58/2/3 59/2/3
f 63/1/3 62/1/3 61/1/3
f 64/1/3 62/1/3 63/1/3
f 67/2/3 66/2/3 65/2/3
f 68/2/3 66/2/3 67/2/3
f 71/2/3 70/2/3 69/2/3
f 72/2/3 70/2/3 71/2/3
f 73/2/4 74/2/4 75/2/4
f 75/2/4 74/2/4 76/2/4
f 77/2/4 78/2/4 79/2/4
f 79/2/4 78/2/4 80/2/4
f 81/1/4 82/1/4 83/1/4
f 83/1/4 82/1/4 84/1/4
f 85/2/4 86/2/4 87/2/4
f 87/2/4 86/2/4 88/2/4
f 89/2/4 90/2/4 91/2/4
f 91/2/4 90/2/4 92/2/4
f 93/1/4 94/1/4 95/1/4
f 95/1/4 94/1/4 96/1/4
f 99/1/5 98/1/5 97/1/5
f 100/1/5 98/1/5 99/1/5
f 101/1/5 99/1/5 97/1/5
f 101/3/5 100/3/5 99/3/5
f 102/1/5 98/1/5 100/1/5
f 102/3/5 100/3/5 101/3/5
f 103/1/5 101/1/5 97/1/5
f 103/1/5 102/1/5 101/1/5
f 104/1/5 98/1/5 102/1/5
f 104/1/5 102/1/5 103/1/5
f 105/3/6 106/3/6 107/3/6
f 107/3/6 106/3/6 108/3/6
f 109/1/6 110/1/6 111/1/6
f 111/1/6 110/1/6 112/1/6
f 112/1/6 110/1/6 113/1/6
f 113/1/6 110/1/6 114/1/6
f 109/1/6 111/1/6 115/1/6
f 112/1/6 113/1/6 116/1/6
f 116/1/6 113/1/6 117/1/6
f 114/1/6 110/1/6 118/1/6
f 116/1/6 117/1/6 119/1/6
f 117/1/6 118/1/6 119/1/6
f 115/1/6 116/1/6 119/1/6
f 119/1/6 118/1/6 120/1/6
f 115/1/6 119/1/6 121/1/6
f 120/1/6 118/1/6 122/1/6
f 109/1/6 115/1/6 123/1/6
f 121/1/6 122/1/6 123/1/6
f 115/1/6 121/1/6 123/1/6
f 123/1/6 122/1/6 124/1/6
f 122/1/6 118/1/6 125/1/6
f 124/1/6 122/1/6 125/1/6
f 118/1/6 110/1/6 126/1/6
f 125/1/6 118/1/6 126/1/6
f 109/1/6 123/1/6 127/1/6
f 124/1/6 125/1/6 128/1/6
f 128/1/6 125/1/6 129/1/6
f 126/1/6 110/1/6 130/1/6
f 109/1/6 127/1/6 131/1/6
f 129/1/6 130/1/6 131/1/6
f 128/1/6 129/1/6 131/1/6
f 127/1/6 128/1/6 131/1/6
f 130/1/6 110/1/6 132/1/6
f 131/1/6 130/1/6 132/1/6
f 133/2/6 134/2/6 137/2/6
f 137/2/6 134/2/6 138/2/6
f 135/2/6 136/2/6 139/2/6
f 139/2/6 136/2/6 140/2/6
f 141/2/6 142/2/6 145/2/6
f 145/2/6 142/2/6 146/2/6
f 143/2/6 144/2/6 147/2/6
f 147/2/6 144/2/6 148/2/6
