# MagicaVoxel @ Ephtracy

# group
o 

# material
mtllib maschine.mtl
usemtl palette

# normals
vn -1 0 0
vn 1 0 0
vn 0 0 1
vn 0 0 -1
vn 0 -1 0
vn 0 1 0

# texcoords
vt 0.583984 0.5
vt 0.681641 0.5
vt 0.935547 0.5
vt 0.994141 0.5

# verts
v 0 2 0
v 0 2 -0.3
v 0 2 -2.7
v 0 2 -3
v 0 4.2 -0.3
v 0 4.2 -2.7
v 0 4.5 0
v 0 4.5 -3
v 0.2 4.5 -0.2
v 0.2 4.5 -0.4
v 0.2 4.5 -2.6
v 0.2 4.5 -2.8
v 0.2 4.6 -0.2
v 0.2 4.6 -0.4
v 0.2 4.6 -2.6
v 0.2 4.6 -2.8
v 0.7 4.5 -0.9
v 0.7 4.5 -2.1
v 0.7 4.6 -0.9
v 0.7 4.6 -2.1
v 1.5 4.5 -1.1
v 1.5 4.5 -1.9
v 1.5 4.6 -1.1
v 1.5 4.6 -1.9
v 2.3 4.5 -1.1
v 2.3 4.5 -1.9
v 2.3 4.6 -1.1
v 2.3 4.6 -1.9
v 2.9 2 -0.2
v 2.9 2 -2.7
v 2.9 4.2 -0.2
v 2.9 4.2 -2.7
v 3.1 4.5 -1.1
v 3.1 4.5 -1.9
v 3.1 4.6 -1.1
v 3.1 4.6 -1.9
v 3.2 2.5 0
v 3.2 2.5 -0.1
v 3.2 2.6 0
v 3.2 2.6 -0.1
v 3.6 4.5 -0.2
v 3.6 4.5 -0.4
v 3.6 4.5 -2.6
v 3.6 4.5 -2.8
v 3.6 4.6 -0.2
v 3.6 4.6 -0.4
v 3.6 4.6 -2.6
v 3.6 4.6 -2.8
v 0.1 2 -0.2
v 0.1 2 -0.3
v 0.1 4.2 -0.2
v 0.1 4.2 -0.3
v 0.4 4.5 -0.2
v 0.4 4.5 -0.4
v 0.4 4.5 -2.6
v 0.4 4.5 -2.8
v 0.4 4.6 -0.2
v 0.4 4.6 -0.4
v 0.4 4.6 -2.6
v 0.4 4.6 -2.8
v 0.9 4.5 -1.1
v 0.9 4.5 -1.9
v 0.9 4.6 -1.1
v 0.9 4.6 -1.9
v 1.7 4.5 -1.1
v 1.7 4.5 -1.9
v 1.7 4.6 -1.1
v 1.7 4.6 -1.9
v 2.5 4.5 -1.1
v 2.5 4.5 -1.9
v 2.5 4.6 -1.1
v 2.5 4.6 -1.9
v 3.1 2.5 0
v 3.1 2.5 -0.1
v 3.1 2.6 0
v 3.1 2.6 -0.1
v 3.3 4.5 -0.9
v 3.3 4.5 -2.1
v 3.3 4.6 -0.9
v 3.3 4.6 -2.1
v 3.8 4.5 -0.2
v 3.8 4.5 -0.4
v 3.8 4.5 -2.6
v 3.8 4.5 -2.8
v 3.8 4.6 -0.2
v 3.8 4.6 -0.4
v 3.8 4.6 -2.6
v 3.8 4.6 -2.8
v 4 2 0
v 4 2 -3
v 4 4.5 0
v 4 4.5 -3
v 0 2 0
v 0 4.5 0
v 3.1 2.5 0
v 3.1 2.6 0
v 3.2 2.5 0
v 3.2 2.6 0
v 4 2 0
v 4 4.5 0
v 3.1 2.5 -0.1
v 3.1 2.6 -0.1
v 3.2 2.5 -0.1
v 3.2 2.6 -0.1
v 0.2 4.5 -0.2
v 0.2 4.6 -0.2
v 0.4 4.5 -0.2
v 0.4 4.6 -0.2
v 3.6 4.5 -0.2
v 3.6 4.6 -0.2
v 3.8 4.5 -0.2
v 3.8 4.6 -0.2
v 0.7 4.5 -0.9
v 0.7 4.6 -0.9
v 3.3 4.5 -0.9
v 3.3 4.6 -0.9
v 0.9 4.5 -1.9
v 0.9 4.6 -1.9
v 1.5 4.5 -1.9
v 1.5 4.6 -1.9
v 1.7 4.5 -1.9
v 1.7 4.6 -1.9
v 2.3 4.5 -1.9
v 2.3 4.6 -1.9
v 2.5 4.5 -1.9
v 2.5 4.6 -1.9
v 3.1 4.5 -1.9
v 3.1 4.6 -1.9
v 0.2 4.5 -2.6
v 0.2 4.6 -2.6
v 0.4 4.5 -2.6
v 0.4 4.6 -2.6
v 3.6 4.5 -2.6
v 3.6 4.6 -2.6
v 3.8 4.5 -2.6
v 3.8 4.6 -2.6
v 0 2 -2.7
v 0 4.2 -2.7
v 2.9 2 -2.7
v 2.9 4.2 -2.7
v 0.1 2 -0.2
v 0.1 4.2 -0.2
v 2.9 2 -0.2
v 2.9 4.2 -0.2
v 0 2 -0.3
v 0 4.2 -0.3
v 0.1 2 -0.3
v 0.1 4.2 -0.3
v 0.2 4.5 -0.4
v 0.2 4.6 -0.4
v 0.4 4.5 -0.4
v 0.4 4.6 -0.4
v 3.6 4.5 -0.4
v 3.6 4.6 -0.4
v 3.8 4.5 -0.4
v 3.8 4.6 -0.4
v 0.9 4.5 -1.1
v 0.9 4.6 -1.1
v 1.5 4.5 -1.1
v 1.5 4.6 -1.1
v 1.7 4.5 -1.1
v 1.7 4.6 -1.1
v 2.3 4.5 -1.1
v 2.3 4.6 -1.1
v 2.5 4.5 -1.1
v 2.5 4.6 -1.1
v 3.1 4.5 -1.1
v 3.1 4.6 -1.1
v 0.7 4.5 -2.1
v 0.7 4.6 -2.1
v 3.3 4.5 -2.1
v 3.3 4.6 -2.1
v 0.2 4.5 -2.8
v 0.2 4.6 -2.8
v 0.4 4.5 -2.8
v 0.4 4.6 -2.8
v 3.6 4.5 -2.8
v 3.6 4.6 -2.8
v 3.8 4.5 -2.8
v 3.8 4.6 -2.8
v 0 2 -3
v 0 4.5 -3
v 4 2 -3
v 4 4.5 -3
v 0 2 0
v 4 2 0
v 0.1 2 -0.2
v 2.9 2 -0.2
v 3.2 2 -0.2
v 0 2 -0.3
v 0.1 2 -0.3
v 0 2 -2.7
v 2.9 2 -2.7
v 3.2 2 -2.7
v 0 2 -3
v 4 2 -3
v 3.1 2.6 0
v 3.2 2.6 0
v 3.1 2.6 -0.1
v 3.2 2.6 -0.1
v 0.1 4.2 -0.2
v 2.9 4.2 -0.2
v 0 4.2 -0.3
v 0.1 4.2 -0.3
v 0 4.2 -2.7
v 2.9 4.2 -2.7
v 3.1 2.5 0
v 3.2 2.5 0
v 3.1 2.5 -0.1
v 3.2 2.5 -0.1
v 0 4.5 0
v 4 4.5 0
v 0.2 4.5 -0.2
v 0.4 4.5 -0.2
v 3.6 4.5 -0.2
v 3.8 4.5 -0.2
v 0.2 4.5 -0.4
v 0.4 4.5 -0.4
v 3.6 4.5 -0.4
v 3.8 4.5 -0.4
v 0.7 4.5 -0.9
v 3.3 4.5 -0.9
v 0.9 4.5 -1.1
v 1.5 4.5 -1.1
v 1.7 4.5 -1.1
v 2.3 4.5 -1.1
v 2.5 4.5 -1.1
v 3.1 4.5 -1.1
v 0.9 4.5 -1.9
v 1.5 4.5 -1.9
v 1.7 4.5 -1.9
v 2.3 4.5 -1.9
v 2.5 4.5 -1.9
v 3.1 4.5 -1.9
v 0.7 4.5 -2.1
v 3.3 4.5 -2.1
v 0.2 4.5 -2.6
v 0.4 4.5 -2.6
v 3.6 4.5 -2.6
v 3.8 4.5 -2.6
v 0.2 4.5 -2.8
v 0.4 4.5 -2.8
v 3.6 4.5 -2.8
v 3.8 4.5 -2.8
v 0 4.5 -3
v 4 4.5 -3
v 0.2 4.6 -0.2
v 0.4 4.6 -0.2
v 3.6 4.6 -0.2
v 3.8 4.6 -0.2
v 0.2 4.6 -0.4
v 0.4 4.6 -0.4
v 3.6 4.6 -0.4
v 3.8 4.6 -0.4
v 0.7 4.6 -0.9
v 3.3 4.6 -0.9
v 0.9 4.6 -1.1
v 1.5 4.6 -1.1
v 1.7 4.6 -1.1
v 2.3 4.6 -1.1
v 2.5 4.6 -1.1
v 3.1 4.6 -1.1
v 0.9 4.6 -1.9
v 1.5 4.6 -1.9
v 1.7 4.6 -1.9
v 2.3 4.6 -1.9
v 2.5 4.6 -1.9
v 3.1 4.6 -1.9
v 0.7 4.6 -2.1
v 3.3 4.6 -2.1
v 0.2 4.6 -2.6
v 0.4 4.6 -2.6
v 3.6 4.6 -2.6
v 3.8 4.6 -2.6
v 0.2 4.6 -2.8
v 0.4 4.6 -2.8
v 3.6 4.6 -2.8
v 3.8 4.6 -2.8

# faces
f 5/1/1 2/1/1 1/1/1
f 6/1/1 4/1/1 3/1/1
f 7/1/1 5/1/1 1/1/1
f 7/1/1 6/1/1 5/1/1
f 8/1/1 4/1/1 6/1/1
f 8/1/1 6/1/1 7/1/1
f 13/2/1 10/2/1 9/2/1
f 14/2/1 10/2/1 13/2/1
f 15/2/1 12/2/1 11/2/1
f 16/2/1 12/2/1 15/2/1
f 19/3/1 18/3/1 17/3/1
f 20/3/1 18/3/1 19/3/1
f 23/3/1 22/3/1 21/3/1
f 24/3/1 22/3/1 23/3/1
f 27/3/1 26/3/1 25/3/1
f 28/3/1 26/3/1 27/3/1
f 31/4/1 30/4/1 29/4/1
f 32/4/1 30/4/1 31/4/1
f 35/3/1 34/3/1 33/3/1
f 36/3/1 34/3/1 35/3/1
f 39/1/1 38/1/1 37/1/1
f 40/1/1 38/1/1 39/1/1
f 45/2/1 42/2/1 41/2/1
f 46/2/1 42/2/1 45/2/1
f 47/2/1 44/2/1 43/2/1
f 48/2/1 44/2/1 47/2/1
f 49/1/2 50/1/2 51/1/2
f 51/1/2 50/1/2 52/1/2
f 53/2/2 54/2/2 57/2/2
f 57/2/2 54/2/2 58/2/2
f 55/2/2 56/2/2 59/2/2
f 59/2/2 56/2/2 60/2/2
f 61/3/2 62/3/2 63/3/2
f 63/3/2 62/3/2 64/3/2
f 65/3/2 66/3/2 67/3/2
f 67/3/2 66/3/2 68/3/2
f 69/3/2 70/3/2 71/3/2
f 71/3/2 70/3/2 72/3/2
f 73/1/2 74/1/2 75/1/2
f 75/1/2 74/1/2 76/1/2
f 77/3/2 78/3/2 79/3/2
f 79/3/2 78/3/2 80/3/2
f 81/2/2 82/2/2 85/2/2
f 85/2/2 82/2/2 86/2/2
f 83/2/2 84/2/2 87/2/2
f 87/2/2 84/2/2 88/2/2
f 89/1/2 90/1/2 91/1/2
f 91/1/2 90/1/2 92/1/2
f 95/1/3 94/1/3 93/1/3
f 96/1/3 94/1/3 95/1/3
f 97/1/3 95/1/3 93/1/3
f 98/1/3 94/1/3 96/1/3
f 99/1/3 97/1/3 93/1/3
f 99/1/3 98/1/3 97/1/3
f 100/1/3 94/1/3 98/1/3
f 100/1/3 98/1/3 99/1/3
f 103/1/3 102/1/3 101/1/3
f 104/1/3 102/1/3 103/1/3
f 107/2/3 106/2/3 105/2/3
f 108/2/3 106/2/3 107/2/3
f 111/2/3 110/2/3 109/2/3
f 112/2/3 110/2/3 111/2/3
f 115/3/3 114/3/3 113/3/3
f 116/3/3 114/3/3 115/3/3
f 119/3/3 118/3/3 117/3/3
f 120/3/3 118/3/3 119/3/3
f 123/3/3 122/3/3 121/3/3
f 124/3/3 122/3/3 123/3/3
f 127/3/3 126/3/3 125/3/3
f 128/3/3 126/3/3 127/3/3
f 131/2/3 130/2/3 129/2/3
f 132/2/3 130/2/3 131/2/3
f 135/2/3 134/2/3 133/2/3
f 136/2/3 134/2/3 135/2/3
f 139/1/3 138/1/3 137/1/3
f 140/1/3 138/1/3 139/1/3
f 141/1/4 142/1/4 143/1/4
f 143/1/4 142/1/4 144/1/4
f 145/1/4 146/1/4 147/1/4
f 147/1/4 146/1/4 148/1/4
f 149/2/4 150/2/4 151/2/4
f 151/2/4 150/2/4 152/2/4
f 153/2/4 154/2/4 155/2/4
f 155/2/4 154/2/4 156/2/4
f 157/3/4 158/3/4 159/3/4
f 159/3/4 158/3/4 160/3/4
f 161/3/4 162/3/4 163/3/4
f 163/3/4 162/3/4 164/3/4
f 165/3/4 166/3/4 167/3/4
f 167/3/4 166/3/4 168/3/4
f 169/3/4 170/3/4 171/3/4
f 171/3/4 170/3/4 172/3/4
f 173/2/4 174/2/4 175/2/4
f 175/2/4 174/2/4 176/2/4
f 177/2/4 178/2/4 179/2/4
f 179/2/4 178/2/4 180/2/4
f 181/1/4 182/1/4 183/1/4
f 183/1/4 182/1/4 184/1/4
f 187/1/5 186/1/5 185/1/5
f 188/1/5 186/1/5 187/1/5
f 189/1/5 186/1/5 188/1/5
f 190/1/5 187/1/5 185/1/5
f 191/1/5 187/1/5 190/1/5
f 193/4/5 189/4/5 188/4/5
f 194/1/5 186/1/5 189/1/5
f 194/4/5 189/4/5 193/4/5
f 195/1/5 193/1/5 192/1/5
f 195/1/5 194/1/5 193/1/5
f 196/1/5 186/1/5 194/1/5
f 196/1/5 194/1/5 195/1/5
f 199/1/5 198/1/5 197/1/5
f 200/1/5 198/1/5 199/1/5
f 204/1/5 202/1/5 201/1/5
f 205/1/5 204/1/5 203/1/5
f 206/1/5 202/1/5 204/1/5
f 206/1/5 204/1/5 205/1/5
f 207/1/6 208/1/6 209/1/6
f 209/1/6 208/1/6 210/1/6
f 211/1/6 212/1/6 213/1/6
f 213/1/6 212/1/6 214/1/6
f 214/1/6 212/1/6 215/1/6
f 215/1/6 212/1/6 216/1/6
f 211/1/6 213/1/6 217/1/6
f 214/1/6 215/1/6 218/1/6
f 218/1/6 215/1/6 219/1/6
f 216/1/6 212/1/6 220/1/6
f 218/1/6 219/1/6 221/1/6
f 219/1/6 220/1/6 221/1/6
f 217/1/6 218/1/6 221/1/6
f 221/1/6 220/1/6 222/1/6
f 223/3/6 224/3/6 229/3/6
f 229/3/6 224/3/6 230/3/6
f 225/3/6 226/3/6 231/3/6
f 231/3/6 226/3/6 232/3/6
f 227/3/6 228/3/6 233/3/6
f 233/3/6 228/3/6 234/3/6
f 217/1/6 221/1/6 235/1/6
f 222/1/6 220/1/6 236/1/6
f 211/1/6 217/1/6 237/1/6
f 235/1/6 236/1/6 237/1/6
f 217/1/6 235/1/6 237/1/6
f 237/1/6 236/1/6 238/1/6
f 236/1/6 220/1/6 239/1/6
f 238/1/6 236/1/6 239/1/6
f 220/1/6 212/1/6 240/1/6
f 239/1/6 220/1/6 240/1/6
f 211/1/6 237/1/6 241/1/6
f 238/1/6 239/1/6 242/1/6
f 242/1/6 239/1/6 243/1/6
f 240/1/6 212/1/6 244/1/6
f 211/1/6 241/1/6 245/1/6
f 243/1/6 244/1/6 245/1/6
f 242/1/6 243/1/6 245/1/6
f 241/1/6 242/1/6 245/1/6
f 244/1/6 212/1/6 246/1/6
f 245/1/6 244/1/6 246/1/6
f 247/2/6 248/2/6 251/2/6
f 251/2/6 248/2/6 252/2/6
f 249/2/6 250/2/6 253/2/6
f 253/2/6 250/2/6 254/2/6
f 255/3/6 256/3/6 257/3/6
f 257/3/6 256/3/6 258/3/6
f 258/3/6 256/3/6 259/3/6
f 259/3/6 256/3/6 260/3/6
f 260/3/6 256/3/6 261/3/6
f 261/3/6 256/3/6 262/3/6
f 255/3/6 257/3/6 263/3/6
f 258/3/6 259/3/6 264/3/6
f 264/3/6 259/3/6 265/3/6
f 260/3/6 261/3/6 266/3/6
f 266/3/6 261/3/6 267/3/6
f 262/3/6 256/3/6 268/3/6
f 266/3/6 267/3/6 269/3/6
f 267/3/6 268/3/6 269/3/6
f 264/3/6 265/3/6 269/3/6
f 255/3/6 263/3/6 269/3/6
f 265/3/6 266/3/6 269/3/6
f 263/3/6 264/3/6 269/3/6
f 268/3/6 256/3/6 270/3/6
f 269/3/6 268/3/6 270/3/6
f 271/2/6 272/2/6 275/2/6
f 275/2/6 272/2/6 276/2/6
f 273/2/6 274/2/6 277/2/6
f 277/2/6 274/2/6 278/2/6
