# MagicaVoxel @ Ephtracy

# group
o 

# material
mtllib maschine.mtl
usemtl palette

# normals
vn -1 0 0
vn 1 0 0
vn 0 0 1
vn 0 0 -1
vn 0 -1 0
vn 0 1 0

# texcoords
vt 0.583984 0.5
vt 0.681641 0.5
vt 0.935547 0.5
vt 0.994141 0.5

# verts
v 0 2 0
v 0 2 -0.3
v 0 2 -2.7
v 0 2 -3
v 0 4.2 -0.3
v 0 4.2 -2.7
v 0 4.5 0
v 0 4.5 -3
v 0.2 4.5 -0.2
v 0.2 4.5 -0.4
v 0.2 4.5 -2.6
v 0.2 4.5 -2.8
v 0.2 4.6 -0.2
v 0.2 4.6 -0.4
v 0.2 4.6 -2.6
v 0.2 4.6 -2.8
v 1.4 4.5 -0.2
v 1.4 4.5 -2.8
v 1.4 4.6 -0.2
v 1.4 4.6 -2.8
v 2.4 4.5 -0.4
v 2.4 4.5 -1
v 2.4 4.5 -1.2
v 2.4 4.5 -1.8
v 2.4 4.5 -2
v 2.4 4.5 -2.6
v 2.4 4.6 -0.4
v 2.4 4.6 -1
v 2.4 4.6 -1.2
v 2.4 4.6 -1.8
v 2.4 4.6 -2
v 2.4 4.6 -2.6
v 2.9 2 -0.2
v 2.9 2 -2.7
v 2.9 4.2 -0.2
v 2.9 4.2 -2.7
v 3.6 4.5 -0.2
v 3.6 4.5 -0.4
v 3.6 4.5 -2.6
v 3.6 4.5 -2.8
v 3.6 4.6 -0.2
v 3.6 4.6 -0.4
v 3.6 4.6 -2.6
v 3.6 4.6 -2.8
v 0.1 2 -0.2
v 0.1 2 -0.3
v 0.1 4.2 -0.2
v 0.1 4.2 -0.3
v 0.4 4.5 -0.2
v 0.4 4.5 -0.4
v 0.4 4.5 -2.6
v 0.4 4.5 -2.8
v 0.4 4.6 -0.2
v 0.4 4.6 -0.4
v 0.4 4.6 -2.6
v 0.4 4.6 -2.8
v 1.6 4.5 -0.4
v 1.6 4.5 -1
v 1.6 4.5 -1.2
v 1.6 4.5 -1.8
v 1.6 4.5 -2
v 1.6 4.5 -2.6
v 1.6 4.6 -0.4
v 1.6 4.6 -1
v 1.6 4.6 -1.2
v 1.6 4.6 -1.8
v 1.6 4.6 -2
v 1.6 4.6 -2.6
v 2.6 4.5 -0.2
v 2.6 4.5 -2.8
v 2.6 4.6 -0.2
v 2.6 4.6 -2.8
v 3.8 4.5 -0.2
v 3.8 4.5 -0.4
v 3.8 4.5 -2.6
v 3.8 4.5 -2.8
v 3.8 4.6 -0.2
v 3.8 4.6 -0.4
v 3.8 4.6 -2.6
v 3.8 4.6 -2.8
v 4 2 0
v 4 2 -3
v 4 4.5 0
v 4 4.5 -3
v 0 2 0
v 0 4.5 0
v 4 2 0
v 4 4.5 0
v 0.2 4.5 -0.2
v 0.2 4.6 -0.2
v 0.4 4.5 -0.2
v 0.4 4.6 -0.2
v 1.4 4.5 -0.2
v 1.4 4.6 -0.2
v 2.6 4.5 -0.2
v 2.6 4.6 -0.2
v 3.6 4.5 -0.2
v 3.6 4.6 -0.2
v 3.8 4.5 -0.2
v 3.8 4.6 -0.2
v 1.6 4.5 -1
v 1.6 4.6 -1
v 2.4 4.5 -1
v 2.4 4.6 -1
v 1.6 4.5 -1.8
v 1.6 4.6 -1.8
v 2.4 4.5 -1.8
v 2.4 4.6 -1.8
v 0.2 4.5 -2.6
v 0.2 4.6 -2.6
v 0.4 4.5 -2.6
v 0.4 4.6 -2.6
v 1.6 4.5 -2.6
v 1.6 4.6 -2.6
v 2.4 4.5 -2.6
v 2.4 4.6 -2.6
v 3.6 4.5 -2.6
v 3.6 4.6 -2.6
v 3.8 4.5 -2.6
v 3.8 4.6 -2.6
v 0 2 -2.7
v 0 4.2 -2.7
v 2.9 2 -2.7
v 2.9 4.2 -2.7
v 0.1 2 -0.2
v 0.1 4.2 -0.2
v 2.9 2 -0.2
v 2.9 4.2 -0.2
v 0 2 -0.3
v 0 4.2 -0.3
v 0.1 2 -0.3
v 0.1 4.2 -0.3
v 0.2 4.5 -0.4
v 0.2 4.6 -0.4
v 0.4 4.5 -0.4
v 0.4 4.6 -0.4
v 1.6 4.5 -0.4
v 1.6 4.6 -0.4
v 2.4 4.5 -0.4
v 2.4 4.6 -0.4
v 3.6 4.5 -0.4
v 3.6 4.6 -0.4
v 3.8 4.5 -0.4
v 3.8 4.6 -0.4
v 1.6 4.5 -1.2
v 1.6 4.6 -1.2
v 2.4 4.5 -1.2
v 2.4 4.6 -1.2
v 1.6 4.5 -2
v 1.6 4.6 -2
v 2.4 4.5 -2
v 2.4 4.6 -2
v 0.2 4.5 -2.8
v 0.2 4.6 -2.8
v 0.4 4.5 -2.8
v 0.4 4.6 -2.8
v 1.4 4.5 -2.8
v 1.4 4.6 -2.8
v 2.6 4.5 -2.8
v 2.6 4.6 -2.8
v 3.6 4.5 -2.8
v 3.6 4.6 -2.8
v 3.8 4.5 -2.8
v 3.8 4.6 -2.8
v 0 2 -3
v 0 4.5 -3
v 4 2 -3
v 4 4.5 -3
v 0 2 0
v 4 2 0
v 0.1 2 -0.2
v 2.9 2 -0.2
v 3.2 2 -0.2
v 0 2 -0.3
v 0.1 2 -0.3
v 0 2 -2.7
v 2.9 2 -2.7
v 3.2 2 -2.7
v 0 2 -3
v 4 2 -3
v 0.1 4.2 -0.2
v 2.9 4.2 -0.2
v 0 4.2 -0.3
v 0.1 4.2 -0.3
v 0 4.2 -2.7
v 2.9 4.2 -2.7
v 0 4.5 0
v 4 4.5 0
v 0.2 4.5 -0.2
v 0.4 4.5 -0.2
v 1.4 4.5 -0.2
v 2.6 4.5 -0.2
v 3.6 4.5 -0.2
v 3.8 4.5 -0.2
v 0.2 4.5 -0.4
v 0.4 4.5 -0.4
v 1.6 4.5 -0.4
v 2.4 4.5 -0.4
v 3.6 4.5 -0.4
v 3.8 4.5 -0.4
v 1.6 4.5 -1
v 2.4 4.5 -1
v 1.6 4.5 -1.2
v 2.4 4.5 -1.2
v 1.6 4.5 -1.8
v 2.4 4.5 -1.8
v 1.6 4.5 -2
v 2.4 4.5 -2
v 0.2 4.5 -2.6
v 0.4 4.5 -2.6
v 1.6 4.5 -2.6
v 2.4 4.5 -2.6
v 3.6 4.5 -2.6
v 3.8 4.5 -2.6
v 0.2 4.5 -2.8
v 0.4 4.5 -2.8
v 1.4 4.5 -2.8
v 2.6 4.5 -2.8
v 3.6 4.5 -2.8
v 3.8 4.5 -2.8
v 0 4.5 -3
v 4 4.5 -3
v 0.2 4.6 -0.2
v 0.4 4.6 -0.2
v 1.4 4.6 -0.2
v 2.6 4.6 -0.2
v 3.6 4.6 -0.2
v 3.8 4.6 -0.2
v 0.2 4.6 -0.4
v 0.4 4.6 -0.4
v 1.6 4.6 -0.4
v 2.4 4.6 -0.4
v 3.6 4.6 -0.4
v 3.8 4.6 -0.4
v 1.6 4.6 -1
v 2.4 4.6 -1
v 1.6 4.6 -1.2
v 2.4 4.6 -1.2
v 1.6 4.6 -1.8
v 2.4 4.6 -1.8
v 1.6 4.6 -2
v 2.4 4.6 -2
v 0.2 4.6 -2.6
v 0.4 4.6 -2.6
v 1.6 4.6 -2.6
v 2.4 4.6 -2.6
v 3.6 4.6 -2.6
v 3.8 4.6 -2.6
v 0.2 4.6 -2.8
v 0.4 4.6 -2.8
v 1.4 4.6 -2.8
v 2.6 4.6 -2.8
v 3.6 4.6 -2.8
v 3.8 4.6 -2.8

# faces
f 5/1/1 2/1/1 1/1/1
f 6/1/1 4/1/1 3/1/1
f 7/1/1 5/1/1 1/1/1
f 7/1/1 6/1/1 5/1/1
f 8/1/1 4/1/1 6/1/1
f 8/1/1 6/1/1 7/1/1
f 13/2/1 10/2/1 9/2/1
f 14/2/1 10/2/1 13/2/1
f 15/2/1 12/2/1 11/2/1
f 16/2/1 12/2/1 15/2/1
f 19/3/1 18/3/1 17/3/1
f 20/3/1 18/3/1 19/3/1
f 27/3/1 22/3/1 21/3/1
f 28/3/1 22/3/1 27/3/1
f 29/3/1 24/3/1 23/3/1
f 30/3/1 24/3/1 29/3/1
f 31/3/1 26/3/1 25/3/1
f 32/3/1 26/3/1 31/3/1
f 35/4/1 34/4/1 33/4/1
f 36/4/1 34/4/1 35/4/1
f 41/2/1 38/2/1 37/2/1
f 42/2/1 38/2/1 41/2/1
f 43/2/1 40/2/1 39/2/1
f 44/2/1 40/2/1 43/2/1
f 45/1/2 46/1/2 47/1/2
f 47/1/2 46/1/2 48/1/2
f 49/2/2 50/2/2 53/2/2
f 53/2/2 50/2/2 54/2/2
f 51/2/2 52/2/2 55/2/2
f 55/2/2 52/2/2 56/2/2
f 57/3/2 58/3/2 63/3/2
f 63/3/2 58/3/2 64/3/2
f 59/3/2 60/3/2 65/3/2
f 65/3/2 60/3/2 66/3/2
f 61/3/2 62/3/2 67/3/2
f 67/3/2 62/3/2 68/3/2
f 69/3/2 70/3/2 71/3/2
f 71/3/2 70/3/2 72/3/2
f 73/2/2 74/2/2 77/2/2
f 77/2/2 74/2/2 78/2/2
f 75/2/2 76/2/2 79/2/2
f 79/2/2 76/2/2 80/2/2
f 81/1/2 82/1/2 83/1/2
f 83/1/2 82/1/2 84/1/2
f 87/1/3 86/1/3 85/1/3
f 88/1/3 86/1/3 87/1/3
f 91/2/3 90/2/3 89/2/3
f 92/2/3 90/2/3 91/2/3
f 95/3/3 94/3/3 93/3/3
f 96/3/3 94/3/3 95/3/3
f 99/2/3 98/2/3 97/2/3
f 100/2/3 98/2/3 99/2/3
f 103/3/3 102/3/3 101/3/3
f 104/3/3 102/3/3 103/3/3
f 107/3/3 106/3/3 105/3/3
f 108/3/3 106/3/3 107/3/3
f 111/2/3 110/2/3 109/2/3
f 112/2/3 110/2/3 111/2/3
f 115/3/3 114/3/3 113/3/3
f 116/3/3 114/3/3 115/3/3
f 119/2/3 118/2/3 117/2/3
f 120/2/3 118/2/3 119/2/3
f 123/1/3 122/1/3 121/1/3
f 124/1/3 122/1/3 123/1/3
f 125/1/4 126/1/4 127/1/4
f 127/1/4 126/1/4 128/1/4
f 129/1/4 130/1/4 131/1/4
f 131/1/4 130/1/4 132/1/4
f 133/2/4 134/2/4 135/2/4
f 135/2/4 134/2/4 136/2/4
f 137/3/4 138/3/4 139/3/4
f 139/3/4 138/3/4 140/3/4
f 141/2/4 142/2/4 143/2/4
f 143/2/4 142/2/4 144/2/4
f 145/3/4 146/3/4 147/3/4
f 147/3/4 146/3/4 148/3/4
f 149/3/4 150/3/4 151/3/4
f 151/3/4 150/3/4 152/3/4
f 153/2/4 154/2/4 155/2/4
f 155/2/4 154/2/4 156/2/4
f 157/3/4 158/3/4 159/3/4
f 159/3/4 158/3/4 160/3/4
f 161/2/4 162/2/4 163/2/4
f 163/2/4 162/2/4 164/2/4
f 165/1/4 166/1/4 167/1/4
f 167/1/4 166/1/4 168/1/4
f 171/1/5 170/1/5 169/1/5
f 172/1/5 170/1/5 171/1/5
f 173/1/5 170/1/5 172/1/5
f 174/1/5 171/1/5 169/1/5
f 175/1/5 171/1/5 174/1/5
f 177/4/5 173/4/5 172/4/5
f 178/1/5 170/1/5 173/1/5
f 178/4/5 173/4/5 177/4/5
f 179/1/5 177/1/5 176/1/5
f 179/1/5 178/1/5 177/1/5
f 180/1/5 170/1/5 178/1/5
f 180/1/5 178/1/5 179/1/5
f 184/1/5 182/1/5 181/1/5
f 185/1/5 184/1/5 183/1/5
f 186/1/5 182/1/5 184/1/5
f 186/1/5 184/1/5 185/1/5
f 187/1/6 188/1/6 189/1/6
f 189/1/6 188/1/6 190/1/6
f 190/1/6 188/1/6 191/1/6
f 191/1/6 188/1/6 192/1/6
f 192/1/6 188/1/6 193/1/6
f 193/1/6 188/1/6 194/1/6
f 187/1/6 189/1/6 195/1/6
f 190/1/6 191/1/6 196/1/6
f 192/1/6 193/1/6 199/1/6
f 194/1/6 188/1/6 200/1/6
f 197/3/6 198/3/6 201/3/6
f 201/3/6 198/3/6 202/3/6
f 203/3/6 204/3/6 205/3/6
f 205/3/6 204/3/6 206/3/6
f 187/1/6 195/1/6 209/1/6
f 195/1/6 196/1/6 209/1/6
f 196/1/6 191/1/6 210/1/6
f 209/1/6 196/1/6 210/1/6
f 207/3/6 208/3/6 211/3/6
f 211/3/6 208/3/6 212/3/6
f 192/1/6 199/1/6 213/1/6
f 199/1/6 200/1/6 213/1/6
f 200/1/6 188/1/6 214/1/6
f 213/1/6 200/1/6 214/1/6
f 187/1/6 209/1/6 215/1/6
f 210/1/6 191/1/6 216/1/6
f 216/1/6 191/1/6 217/1/6
f 192/1/6 213/1/6 218/1/6
f 218/1/6 213/1/6 219/1/6
f 214/1/6 188/1/6 220/1/6
f 218/1/6 219/1/6 221/1/6
f 219/1/6 220/1/6 221/1/6
f 187/1/6 215/1/6 221/1/6
f 216/1/6 217/1/6 221/1/6
f 217/1/6 218/1/6 221/1/6
f 215/1/6 216/1/6 221/1/6
f 220/1/6 188/1/6 222/1/6
f 221/1/6 220/1/6 222/1/6
f 223/2/6 224/2/6 229/2/6
f 229/2/6 224/2/6 230/2/6
f 225/3/6 226/3/6 231/3/6
f 231/3/6 226/3/6 232/3/6
f 227/2/6 228/2/6 233/2/6
f 233/2/6 228/2/6 234/2/6
f 225/3/6 231/3/6 235/3/6
f 232/3/6 226/3/6 236/3/6
f 225/3/6 235/3/6 237/3/6
f 235/3/6 236/3/6 237/3/6
f 236/3/6 226/3/6 238/3/6
f 237/3/6 236/3/6 238/3/6
f 225/3/6 237/3/6 239/3/6
f 238/3/6 226/3/6 240/3/6
f 225/3/6 239/3/6 241/3/6
f 239/3/6 240/3/6 241/3/6
f 240/3/6 226/3/6 242/3/6
f 241/3/6 240/3/6 242/3/6
f 225/3/6 241/3/6 245/3/6
f 242/3/6 226/3/6 246/3/6
f 243/2/6 244/2/6 249/2/6
f 249/2/6 244/2/6 250/2/6
f 225/3/6 245/3/6 251/3/6
f 245/3/6 246/3/6 251/3/6
f 246/3/6 226/3/6 252/3/6
f 251/3/6 246/3/6 252/3/6
f 247/2/6 248/2/6 253/2/6
f 253/2/6 248/2/6 254/2/6
