# MagicaVoxel @ Ephtracy

# group
o 

# material
mtllib alex.mtl
usemtl palette

# normals
vn -1 0 0
vn 1 0 0
vn 0 0 1
vn 0 0 -1
vn 0 -1 0
vn 0 1 0

# texcoords
vt 0.146484 0.5
vt 0.310547 0.5
vt 0.427734 0.5
vt 0.583984 0.5

# verts
v 0.2 3.2 -0.1
v 0.2 3.2 -0.7
v 0.2 3.3 -0.1
v 0.2 3.3 -0.7
v 0.2 3.4 -0.1
v 0.2 3.4 -0.7
v 0.2 3.5 -0.1
v 0.2 3.5 -0.7
v 0.3 2.9 -0.8
v 0.3 2.9 -1
v 0.3 3.2 -0.7
v 0.3 3.2 -0.8
v 0.3 3.3 -0.7
v 0.3 3.4 -0.7
v 0.3 3.4 -0.9
v 0.3 3.4 -1
v 0.3 3.5 -0.2
v 0.3 3.5 -0.7
v 0.3 3.5 -0.8
v 0.3 3.5 -0.9
v 0.3 3.6 -0.2
v 0.3 3.6 -0.8
v 0.7 2.9 -0.8
v 0.7 2.9 -1
v 0.7 3.2 -0.7
v 0.7 3.2 -0.8
v 0.7 3.3 -0.7
v 0.7 3.4 -0.7
v 0.7 3.4 -0.9
v 0.7 3.4 -1
v 0.7 3.5 -0.2
v 0.7 3.5 -0.7
v 0.7 3.5 -0.8
v 0.7 3.5 -0.9
v 0.7 3.6 -0.2
v 0.7 3.6 -0.8
v 0.8 3.2 -0.1
v 0.8 3.2 -0.7
v 0.8 3.3 -0.1
v 0.8 3.3 -0.7
v 0.8 3.4 -0.1
v 0.8 3.4 -0.7
v 0.8 3.5 -0.1
v 0.8 3.5 -0.7
v 0.2 3.2 -0.1
v 0.2 3.3 -0.1
v 0.2 3.4 -0.1
v 0.2 3.5 -0.1
v 0.8 3.2 -0.1
v 0.8 3.3 -0.1
v 0.8 3.4 -0.1
v 0.8 3.5 -0.1
v 0.3 3.5 -0.2
v 0.3 3.6 -0.2
v 0.7 3.5 -0.2
v 0.7 3.6 -0.2
v 0.3 2.9 -0.8
v 0.3 3.2 -0.8
v 0.7 2.9 -0.8
v 0.7 3.2 -0.8
v 0.2 3.2 -0.7
v 0.2 3.3 -0.7
v 0.2 3.4 -0.7
v 0.2 3.5 -0.7
v 0.3 3.2 -0.7
v 0.3 3.3 -0.7
v 0.3 3.4 -0.7
v 0.3 3.5 -0.7
v 0.7 3.2 -0.7
v 0.7 3.3 -0.7
v 0.7 3.4 -0.7
v 0.7 3.5 -0.7
v 0.8 3.2 -0.7
v 0.8 3.3 -0.7
v 0.8 3.4 -0.7
v 0.8 3.5 -0.7
v 0.3 3.5 -0.8
v 0.3 3.6 -0.8
v 0.7 3.5 -0.8
v 0.7 3.6 -0.8
v 0.3 3.4 -0.9
v 0.3 3.5 -0.9
v 0.7 3.4 -0.9
v 0.7 3.5 -0.9
v 0.3 2.9 -1
v 0.3 3.4 -1
v 0.7 2.9 -1
v 0.7 3.4 -1
v 0.3 2.9 -0.8
v 0.7 2.9 -0.8
v 0.3 2.9 -1
v 0.7 2.9 -1
v 0.2 3.2 -0.1
v 0.8 3.2 -0.1
v 0.2 3.2 -0.7
v 0.3 3.2 -0.7
v 0.7 3.2 -0.7
v 0.8 3.2 -0.7
v 0.3 3.2 -0.8
v 0.7 3.2 -0.8
v 0.3 3.4 -0.9
v 0.7 3.4 -0.9
v 0.3 3.4 -1
v 0.7 3.4 -1
v 0.2 3.5 -0.1
v 0.8 3.5 -0.1
v 0.3 3.5 -0.2
v 0.7 3.5 -0.2
v 0.2 3.5 -0.7
v 0.3 3.5 -0.7
v 0.7 3.5 -0.7
v 0.8 3.5 -0.7
v 0.3 3.5 -0.8
v 0.7 3.5 -0.8
v 0.3 3.5 -0.9
v 0.7 3.5 -0.9
v 0.3 3.6 -0.2
v 0.7 3.6 -0.2
v 0.3 3.6 -0.8
v 0.7 3.6 -0.8

# faces
f 3/4/1 2/4/1 1/4/1
f 4/4/1 2/4/1 3/4/1
f 5/3/1 4/3/1 3/3/1
f 6/3/1 4/3/1 5/3/1
f 7/1/1 6/1/1 5/1/1
f 8/1/1 6/1/1 7/1/1
f 12/2/1 10/2/1 9/2/1
f 13/2/1 12/2/1 11/2/1
f 14/2/1 12/2/1 13/2/1
f 15/2/1 10/2/1 12/2/1
f 15/2/1 12/2/1 14/2/1
f 16/2/1 10/2/1 15/2/1
f 18/2/1 15/2/1 14/2/1
f 19/2/1 15/2/1 18/2/1
f 20/2/1 15/2/1 19/2/1
f 21/2/1 18/2/1 17/2/1
f 21/2/1 19/2/1 18/2/1
f 22/2/1 19/2/1 21/2/1
f 23/2/2 24/2/2 26/2/2
f 25/2/2 26/2/2 27/2/2
f 27/2/2 26/2/2 28/2/2
f 26/2/2 24/2/2 29/2/2
f 28/2/2 26/2/2 29/2/2
f 29/2/2 24/2/2 30/2/2
f 28/2/2 29/2/2 32/2/2
f 32/2/2 29/2/2 33/2/2
f 33/2/2 29/2/2 34/2/2
f 31/2/2 32/2/2 35/2/2
f 32/2/2 33/2/2 35/2/2
f 35/2/2 33/2/2 36/2/2
f 37/4/2 38/4/2 39/4/2
f 39/4/2 38/4/2 40/4/2
f 39/3/2 40/3/2 41/3/2
f 41/3/2 40/3/2 42/3/2
f 41/1/2 42/1/2 43/1/2
f 43/1/2 42/1/2 44/1/2
f 49/4/3 46/4/3 45/4/3
f 50/3/3 47/3/3 46/3/3
f 50/4/3 46/4/3 49/4/3
f 51/1/3 48/1/3 47/1/3
f 51/3/3 47/3/3 50/3/3
f 52/1/3 48/1/3 51/1/3
f 55/2/3 54/2/3 53/2/3
f 56/2/3 54/2/3 55/2/3
f 59/2/3 58/2/3 57/2/3
f 60/2/3 58/2/3 59/2/3
f 61/4/4 62/4/4 65/4/4
f 62/3/4 63/3/4 66/3/4
f 65/4/4 62/4/4 66/4/4
f 63/1/4 64/1/4 67/1/4
f 66/3/4 63/3/4 67/3/4
f 67/1/4 64/1/4 68/1/4
f 69/4/4 70/4/4 73/4/4
f 70/3/4 71/3/4 74/3/4
f 73/4/4 70/4/4 74/4/4
f 71/1/4 72/1/4 75/1/4
f 74/3/4 71/3/4 75/3/4
f 75/1/4 72/1/4 76/1/4
f 77/2/4 78/2/4 79/2/4
f 79/2/4 78/2/4 80/2/4
f 81/2/4 82/2/4 83/2/4
f 83/2/4 82/2/4 84/2/4
f 85/2/4 86/2/4 87/2/4
f 87/2/4 86/2/4 88/2/4
f 91/2/5 90/2/5 89/2/5
f 92/2/5 90/2/5 91/2/5
f 95/4/5 94/4/5 93/4/5
f 96/4/5 94/4/5 95/4/5
f 97/4/5 94/4/5 96/4/5
f 98/4/5 94/4/5 97/4/5
f 99/2/5 97/2/5 96/2/5
f 100/2/5 97/2/5 99/2/5
f 101/2/6 102/2/6 103/2/6
f 103/2/6 102/2/6 104/2/6
f 105/1/6 106/1/6 107/1/6
f 107/1/6 106/1/6 108/1/6
f 105/1/6 107/1/6 109/1/6
f 109/1/6 107/1/6 110/1/6
f 108/1/6 106/1/6 111/1/6
f 111/1/6 106/1/6 112/1/6
f 113/2/6 114/2/6 115/2/6
f 115/2/6 114/2/6 116/2/6
f 117/2/6 118/2/6 119/2/6
f 119/2/6 118/2/6 120/2/6
