# MagicaVoxel @ Ephtracy

# group
o 

# material
mtllib fez.mtl
usemtl palette

# normals
vn -1 0 0
vn 1 0 0
vn 0 0 1
vn 0 0 -1
vn 0 -1 0
vn 0 1 0

# texcoords
vt 0.146484 0.5
vt 0.310547 0.5

# verts
v 0.3 3.2 -0.2
v 0.3 3.2 -0.6
v 0.3 3.6 -0.2
v 0.3 3.6 -0.6
v 0.6 3.6 -0.3
v 0.6 3.6 -0.4
v 0.6 3.7 -0.3
v 0.6 3.7 -0.4
v 0.8 3.3 -0.3
v 0.8 3.3 -0.4
v 0.8 3.4 -0.3
v 0.8 3.4 -0.4
v 0.7 3.2 -0.2
v 0.7 3.2 -0.6
v 0.7 3.4 -0.3
v 0.7 3.4 -0.4
v 0.7 3.6 -0.2
v 0.7 3.6 -0.3
v 0.7 3.6 -0.4
v 0.7 3.6 -0.6
v 0.7 3.7 -0.3
v 0.7 3.7 -0.4
v 0.8 3.5 -0.3
v 0.8 3.5 -0.4
v 0.8 3.6 -0.3
v 0.8 3.6 -0.4
v 0.9 3.3 -0.3
v 0.9 3.3 -0.4
v 0.9 3.5 -0.3
v 0.9 3.5 -0.4
v 0.3 3.2 -0.2
v 0.3 3.6 -0.2
v 0.7 3.2 -0.2
v 0.7 3.6 -0.2
v 0.6 3.6 -0.3
v 0.6 3.7 -0.3
v 0.7 3.4 -0.3
v 0.7 3.6 -0.3
v 0.7 3.7 -0.3
v 0.8 3.3 -0.3
v 0.8 3.4 -0.3
v 0.8 3.5 -0.3
v 0.8 3.6 -0.3
v 0.9 3.3 -0.3
v 0.9 3.5 -0.3
v 0.6 3.6 -0.4
v 0.6 3.7 -0.4
v 0.7 3.4 -0.4
v 0.7 3.6 -0.4
v 0.7 3.7 -0.4
v 0.8 3.3 -0.4
v 0.8 3.4 -0.4
v 0.8 3.5 -0.4
v 0.8 3.6 -0.4
v 0.9 3.3 -0.4
v 0.9 3.5 -0.4
v 0.3 3.2 -0.6
v 0.3 3.6 -0.6
v 0.7 3.2 -0.6
v 0.7 3.6 -0.6
v 0.3 3.2 -0.2
v 0.7 3.2 -0.2
v 0.3 3.2 -0.6
v 0.7 3.2 -0.6
v 0.8 3.3 -0.3
v 0.9 3.3 -0.3
v 0.8 3.3 -0.4
v 0.9 3.3 -0.4
v 0.7 3.4 -0.3
v 0.8 3.4 -0.3
v 0.7 3.4 -0.4
v 0.8 3.4 -0.4
v 0.8 3.5 -0.3
v 0.9 3.5 -0.3
v 0.8 3.5 -0.4
v 0.9 3.5 -0.4
v 0.3 3.6 -0.2
v 0.7 3.6 -0.2
v 0.6 3.6 -0.3
v 0.7 3.6 -0.3
v 0.8 3.6 -0.3
v 0.6 3.6 -0.4
v 0.7 3.6 -0.4
v 0.8 3.6 -0.4
v 0.3 3.6 -0.6
v 0.7 3.6 -0.6
v 0.6 3.7 -0.3
v 0.7 3.7 -0.3
v 0.6 3.7 -0.4
v 0.7 3.7 -0.4

# faces
f 3/1/1 2/1/1 1/1/1
f 4/1/1 2/1/1 3/1/1
f 7/2/1 6/2/1 5/2/1
f 8/2/1 6/2/1 7/2/1
f 11/2/1 10/2/1 9/2/1
f 12/2/1 10/2/1 11/2/1
f 13/1/2 14/1/2 15/1/2
f 15/1/2 14/1/2 16/1/2
f 13/1/2 15/1/2 17/1/2
f 17/1/2 15/1/2 18/1/2
f 16/1/2 14/1/2 19/1/2
f 19/1/2 14/1/2 20/1/2
f 18/2/2 19/2/2 21/2/2
f 21/2/2 19/2/2 22/2/2
f 23/2/2 24/2/2 25/2/2
f 25/2/2 24/2/2 26/2/2
f 27/2/2 28/2/2 29/2/2
f 29/2/2 28/2/2 30/2/2
f 33/1/3 32/1/3 31/1/3
f 34/1/3 32/1/3 33/1/3
f 38/2/3 36/2/3 35/2/3
f 39/2/3 36/2/3 38/2/3
f 41/2/3 38/2/3 37/2/3
f 42/2/3 38/2/3 41/2/3
f 43/2/3 38/2/3 42/2/3
f 44/2/3 41/2/3 40/2/3
f 44/2/3 42/2/3 41/2/3
f 45/2/3 42/2/3 44/2/3
f 46/2/4 47/2/4 49/2/4
f 49/2/4 47/2/4 50/2/4
f 48/2/4 49/2/4 52/2/4
f 52/2/4 49/2/4 53/2/4
f 53/2/4 49/2/4 54/2/4
f 51/2/4 52/2/4 55/2/4
f 52/2/4 53/2/4 55/2/4
f 55/2/4 53/2/4 56/2/4
f 57/1/4 58/1/4 59/1/4
f 59/1/4 58/1/4 60/1/4
f 63/1/5 62/1/5 61/1/5
f 64/1/5 62/1/5 63/1/5
f 67/2/5 66/2/5 65/2/5
f 68/2/5 66/2/5 67/2/5
f 71/2/5 70/2/5 69/2/5
f 72/2/5 70/2/5 71/2/5
f 73/2/6 74/2/6 75/2/6
f 75/2/6 74/2/6 76/2/6
f 77/1/6 78/1/6 79/1/6
f 79/1/6 78/1/6 80/1/6
f 77/1/6 79/1/6 82/1/6
f 80/2/6 81/2/6 83/2/6
f 83/2/6 81/2/6 84/2/6
f 77/1/6 82/1/6 85/1/6
f 82/1/6 83/1/6 85/1/6
f 85/1/6 83/1/6 86/1/6
f 87/2/6 88/2/6 89/2/6
f 89/2/6 88/2/6 90/2/6
