# MagicaVoxel @ Ephtracy

# group
o 

# material
mtllib radio.mtl
usemtl palette

# normals
vn -1 0 0
vn 1 0 0
vn 0 0 1
vn 0 0 -1
vn 0 -1 0
vn 0 1 0

# texcoords
vt 0.177734 0.5
vt 0.306641 0.5
vt 0.310547 0.5
vt 0.400391 0.5
vt 0.927734 0.5
vt 0.955078 0.5
vt 0.962891 0.5

# verts
v 0 2 -0.2
v 0 2 -0.4
v 0 2 -0.9
v 0 2 -1.1
v 0 2.1 -0.1
v 0 2.1 -0.2
v 0 2.1 -0.4
v 0 2.1 -0.9
v 0 2.1 -1.1
v 0 2.1 -1.2
v 0 2.6 -0.1
v 0 2.6 -0.2
v 0 2.7 -0.1
v 0 2.7 -0.2
v 0 2.7 -1.2
v 0.1 2.2 0
v 0.1 2.2 -0.1
v 0.1 2.4 0
v 0.1 2.4 -0.1
v 0.1 2.7 -0.1
v 0.1 2.7 -0.2
v 0.1 2.7 -1.2
v 0.1 2.8 -0.1
v 0.1 2.8 -0.2
v 0.1 2.8 -1.2
v 0.1 2.9 -0.2
v 0.1 2.9 -1.2
v 0.2 2.8 -0.1
v 0.2 2.8 -0.2
v 0.2 2.9 -0.1
v 0.2 2.9 -0.2
v 0.3 2.9 -0.2
v 0.3 2.9 -1.2
v 0.3 3 -0.2
v 0.3 3 -1.2
v 0.6 2.1 -0.1
v 0.6 2.1 -0.2
v 0.6 2.2 -0.1
v 0.6 2.2 -0.2
v 0.7 2.2 0
v 0.7 2.2 -0.1
v 0.7 2.3 -0.1
v 0.7 2.4 0
v 0.7 2.4 -0.1
v 0.8 2 -0.2
v 0.8 2 -0.4
v 0.8 2 -0.9
v 0.8 2 -1.1
v 0.8 2.1 -0.2
v 0.8 2.1 -0.4
v 0.8 2.1 -0.9
v 0.8 2.1 -1.1
v 0.8 2.5 -0.1
v 0.8 2.5 -0.2
v 0.8 2.6 -0.2
v 0.8 2.7 -0.1
v 0.8 2.7 -0.2
v 0.2 2 -0.2
v 0.2 2 -0.4
v 0.2 2 -0.9
v 0.2 2 -1.1
v 0.2 2.1 -0.2
v 0.2 2.1 -0.4
v 0.2 2.1 -0.9
v 0.2 2.1 -1.1
v 0.2 2.5 -0.1
v 0.2 2.5 -0.2
v 0.2 2.7 -0.1
v 0.2 2.7 -0.2
v 0.3 2.2 0
v 0.3 2.2 -0.1
v 0.3 2.3 -0.1
v 0.3 2.4 0
v 0.3 2.4 -0.1
v 0.4 2.1 -0.1
v 0.4 2.1 -0.2
v 0.4 2.2 -0.1
v 0.4 2.2 -0.2
v 0.7 2.9 -0.2
v 0.7 2.9 -1.2
v 0.7 3 -0.2
v 0.7 3 -1.2
v 0.8 2.8 -0.1
v 0.8 2.8 -0.2
v 0.8 2.9 -0.1
v 0.8 2.9 -0.2
v 0.9 2.2 0
v 0.9 2.2 -0.1
v 0.9 2.4 0
v 0.9 2.4 -0.1
v 0.9 2.7 -0.1
v 0.9 2.7 -0.2
v 0.9 2.7 -1.2
v 0.9 2.8 -0.1
v 0.9 2.8 -0.2
v 0.9 2.8 -1.2
v 0.9 2.9 -0.2
v 0.9 2.9 -1.2
v 1 2 -0.2
v 1 2 -0.4
v 1 2 -0.9
v 1 2 -1.1
v 1 2.1 -0.1
v 1 2.1 -0.2
v 1 2.1 -0.4
v 1 2.1 -0.9
v 1 2.1 -1.1
v 1 2.1 -1.2
v 1 2.6 -0.1
v 1 2.6 -0.2
v 1 2.7 -0.1
v 1 2.7 -0.2
v 1 2.7 -1.2
v 0.1 2.2 0
v 0.1 2.4 0
v 0.3 2.2 0
v 0.3 2.4 0
v 0.7 2.2 0
v 0.7 2.4 0
v 0.9 2.2 0
v 0.9 2.4 0
v 0 2.1 -0.1
v 0 2.6 -0.1
v 0 2.7 -0.1
v 0.1 2.2 -0.1
v 0.1 2.4 -0.1
v 0.1 2.6 -0.1
v 0.1 2.7 -0.1
v 0.1 2.8 -0.1
v 0.2 2.5 -0.1
v 0.2 2.7 -0.1
v 0.2 2.8 -0.1
v 0.2 2.9 -0.1
v 0.3 2.2 -0.1
v 0.3 2.3 -0.1
v 0.3 2.4 -0.1
v 0.4 2.1 -0.1
v 0.4 2.2 -0.1
v 0.6 2.1 -0.1
v 0.6 2.2 -0.1
v 0.7 2.2 -0.1
v 0.7 2.3 -0.1
v 0.7 2.4 -0.1
v 0.8 2.5 -0.1
v 0.8 2.7 -0.1
v 0.8 2.8 -0.1
v 0.8 2.9 -0.1
v 0.9 2.2 -0.1
v 0.9 2.4 -0.1
v 0.9 2.6 -0.1
v 0.9 2.7 -0.1
v 0.9 2.8 -0.1
v 1 2.1 -0.1
v 1 2.6 -0.1
v 1 2.7 -0.1
v 0 2 -0.2
v 0 2.1 -0.2
v 0.1 2.8 -0.2
v 0.1 2.9 -0.2
v 0.2 2 -0.2
v 0.2 2.1 -0.2
v 0.2 2.5 -0.2
v 0.2 2.7 -0.2
v 0.2 2.8 -0.2
v 0.2 2.9 -0.2
v 0.3 2.5 -0.2
v 0.3 2.6 -0.2
v 0.3 2.9 -0.2
v 0.3 3 -0.2
v 0.4 2.1 -0.2
v 0.4 2.2 -0.2
v 0.4 2.5 -0.2
v 0.4 2.6 -0.2
v 0.5 2.5 -0.2
v 0.5 2.6 -0.2
v 0.6 2.1 -0.2
v 0.6 2.2 -0.2
v 0.6 2.5 -0.2
v 0.6 2.6 -0.2
v 0.7 2.5 -0.2
v 0.7 2.6 -0.2
v 0.7 2.9 -0.2
v 0.7 3 -0.2
v 0.8 2 -0.2
v 0.8 2.1 -0.2
v 0.8 2.5 -0.2
v 0.8 2.6 -0.2
v 0.8 2.7 -0.2
v 0.8 2.8 -0.2
v 0.8 2.9 -0.2
v 0.9 2.8 -0.2
v 0.9 2.9 -0.2
v 1 2 -0.2
v 1 2.1 -0.2
v 0 2 -0.9
v 0 2.1 -0.9
v 0.2 2 -0.9
v 0.2 2.1 -0.9
v 0.8 2 -0.9
v 0.8 2.1 -0.9
v 1 2 -0.9
v 1 2.1 -0.9
v 0 2 -0.4
v 0 2.1 -0.4
v 0.2 2 -0.4
v 0.2 2.1 -0.4
v 0.8 2 -0.4
v 0.8 2.1 -0.4
v 1 2 -0.4
v 1 2.1 -0.4
v 0 2 -1.1
v 0 2.1 -1.1
v 0.2 2 -1.1
v 0.2 2.1 -1.1
v 0.8 2 -1.1
v 0.8 2.1 -1.1
v 1 2 -1.1
v 1 2.1 -1.1
v 0 2.1 -1.2
v 0 2.7 -1.2
v 0.1 2.7 -1.2
v 0.1 2.8 -1.2
v 0.1 2.9 -1.2
v 0.2 2.8 -1.2
v 0.2 2.9 -1.2
v 0.3 2.9 -1.2
v 0.3 3 -1.2
v 0.7 2.9 -1.2
v 0.7 3 -1.2
v 0.8 2.8 -1.2
v 0.8 2.9 -1.2
v 0.9 2.7 -1.2
v 0.9 2.8 -1.2
v 0.9 2.9 -1.2
v 1 2.1 -1.2
v 1 2.7 -1.2
v 0 2 -0.2
v 0.2 2 -0.2
v 0.8 2 -0.2
v 1 2 -0.2
v 0 2 -0.4
v 0.2 2 -0.4
v 0.8 2 -0.4
v 1 2 -0.4
v 0 2 -0.9
v 0.2 2 -0.9
v 0.8 2 -0.9
v 1 2 -0.9
v 0 2 -1.1
v 0.2 2 -1.1
v 0.8 2 -1.1
v 1 2 -1.1
v 0 2.1 -0.1
v 0.4 2.1 -0.1
v 0.6 2.1 -0.1
v 1 2.1 -0.1
v 0 2.1 -0.2
v 0.2 2.1 -0.2
v 0.4 2.1 -0.2
v 0.6 2.1 -0.2
v 0.8 2.1 -0.2
v 1 2.1 -0.2
v 0 2.1 -0.4
v 0.2 2.1 -0.4
v 0.8 2.1 -0.4
v 1 2.1 -0.4
v 0 2.1 -0.9
v 0.2 2.1 -0.9
v 0.8 2.1 -0.9
v 1 2.1 -0.9
v 0 2.1 -1.1
v 0.2 2.1 -1.1
v 0.8 2.1 -1.1
v 1 2.1 -1.1
v 0 2.1 -1.2
v 1 2.1 -1.2
v 0.1 2.2 0
v 0.3 2.2 0
v 0.7 2.2 0
v 0.9 2.2 0
v 0.1 2.2 -0.1
v 0.3 2.2 -0.1
v 0.4 2.2 -0.1
v 0.6 2.2 -0.1
v 0.7 2.2 -0.1
v 0.9 2.2 -0.1
v 0.4 2.2 -0.2
v 0.6 2.2 -0.2
v 0.2 2.7 -0.1
v 0.8 2.7 -0.1
v 0.2 2.7 -0.2
v 0.8 2.7 -0.2
v 0.1 2.4 0
v 0.3 2.4 0
v 0.7 2.4 0
v 0.9 2.4 0
v 0.1 2.4 -0.1
v 0.3 2.4 -0.1
v 0.7 2.4 -0.1
v 0.9 2.4 -0.1
v 0.2 2.5 -0.1
v 0.8 2.5 -0.1
v 0.2 2.5 -0.2
v 0.3 2.5 -0.2
v 0.4 2.5 -0.2
v 0.5 2.5 -0.2
v 0.6 2.5 -0.2
v 0.7 2.5 -0.2
v 0.8 2.5 -0.2
v 0 2.7 -0.1
v 0.1 2.7 -0.1
v 0.9 2.7 -0.1
v 1 2.7 -0.1
v 0 2.7 -0.2
v 0.1 2.7 -0.2
v 0.9 2.7 -0.2
v 1 2.7 -0.2
v 0 2.7 -1.2
v 0.1 2.7 -1.2
v 0.9 2.7 -1.2
v 1 2.7 -1.2
v 0.1 2.8 -0.1
v 0.2 2.8 -0.1
v 0.8 2.8 -0.1
v 0.9 2.8 -0.1
v 0.1 2.8 -0.2
v 0.2 2.8 -0.2
v 0.8 2.8 -0.2
v 0.9 2.8 -0.2
v 0.2 2.9 -0.1
v 0.8 2.9 -0.1
v 0.1 2.9 -0.2
v 0.2 2.9 -0.2
v 0.3 2.9 -0.2
v 0.7 2.9 -0.2
v 0.8 2.9 -0.2
v 0.9 2.9 -0.2
v 0.1 2.9 -1.2
v 0.2 2.9 -1.2
v 0.3 2.9 -1.2
v 0.7 2.9 -1.2
v 0.8 2.9 -1.2
v 0.9 2.9 -1.2
v 0.3 3 -0.2
v 0.7 3 -0.2
v 0.3 3 -1.2
v 0.7 3 -1.2

# faces
f 6/6/1 2/6/1 1/6/1
f 7/6/1 2/6/1 6/6/1
f 8/6/1 4/6/1 3/6/1
f 9/6/1 4/6/1 8/6/1
f 11/2/1 7/2/1 6/2/1
f 11/2/1 10/2/1 9/2/1
f 11/2/1 9/2/1 8/2/1
f 11/2/1 8/2/1 7/2/1
f 11/2/1 6/2/1 5/2/1
f 12/2/1 10/2/1 11/2/1
f 13/4/1 12/4/1 11/4/1
f 14/2/1 10/2/1 12/2/1
f 14/4/1 12/4/1 13/4/1
f 15/2/1 10/2/1 14/2/1
f 18/3/1 17/3/1 16/3/1
f 19/3/1 17/3/1 18/3/1
f 23/2/1 21/2/1 20/2/1
f 23/2/1 22/2/1 21/2/1
f 24/2/1 22/2/1 23/2/1
f 25/2/1 22/2/1 24/2/1
f 26/3/1 25/3/1 24/3/1
f 27/3/1 25/3/1 26/3/1
f 30/4/1 29/4/1 28/4/1
f 31/4/1 29/4/1 30/4/1
f 34/2/1 33/2/1 32/2/1
f 35/2/1 33/2/1 34/2/1
f 38/2/1 37/2/1 36/2/1
f 39/2/1 37/2/1 38/2/1
f 42/3/1 41/3/1 40/3/1
f 43/3/1 42/3/1 40/3/1
f 44/3/1 42/3/1 43/3/1
f 49/6/1 46/6/1 45/6/1
f 50/6/1 46/6/1 49/6/1
f 51/6/1 48/6/1 47/6/1
f 52/6/1 48/6/1 51/6/1
f 55/2/1 54/2/1 53/2/1
f 56/2/1 55/2/1 53/2/1
f 57/2/1 55/2/1 56/2/1
f 58/6/2 59/6/2 62/6/2
f 62/6/2 59/6/2 63/6/2
f 60/6/2 61/6/2 64/6/2
f 64/6/2 61/6/2 65/6/2
f 66/2/2 67/2/2 68/2/2
f 68/2/2 67/2/2 69/2/2
f 70/3/2 71/3/2 72/3/2
f 70/3/2 72/3/2 73/3/2
f 73/3/2 72/3/2 74/3/2
f 75/2/2 76/2/2 77/2/2
f 77/2/2 76/2/2 78/2/2
f 79/2/2 80/2/2 81/2/2
f 81/2/2 80/2/2 82/2/2
f 83/4/2 84/4/2 85/4/2
f 85/4/2 84/4/2 86/4/2
f 87/3/2 88/3/2 89/3/2
f 89/3/2 88/3/2 90/3/2
f 91/2/2 92/2/2 94/2/2
f 92/2/2 93/2/2 94/2/2
f 94/2/2 93/2/2 95/2/2
f 95/2/2 93/2/2 96/2/2
f 95/3/2 96/3/2 97/3/2
f 97/3/2 96/3/2 98/3/2
f 99/6/2 100/6/2 104/6/2
f 104/6/2 100/6/2 105/6/2
f 101/6/2 102/6/2 106/6/2
f 106/6/2 102/6/2 107/6/2
f 104/2/2 105/2/2 109/2/2
f 107/2/2 108/2/2 109/2/2
f 106/2/2 107/2/2 109/2/2
f 105/2/2 106/2/2 109/2/2
f 103/2/2 104/2/2 109/2/2
f 109/2/2 108/2/2 110/2/2
f 109/4/2 110/4/2 111/4/2
f 110/2/2 108/2/2 112/2/2
f 111/4/2 110/4/2 112/4/2
f 112/2/2 108/2/2 113/2/2
f 116/3/3 115/3/3 114/3/3
f 117/3/3 115/3/3 116/3/3
f 120/3/3 119/3/3 118/3/3
f 121/3/3 119/3/3 120/3/3
f 125/2/3 123/2/3 122/2/3
f 126/2/3 123/2/3 125/2/3
f 127/4/3 124/4/3 123/4/3
f 127/2/3 123/2/3 126/2/3
f 128/4/3 124/4/3 127/4/3
f 130/2/3 129/2/3 128/2/3
f 130/2/3 128/2/3 127/2/3
f 130/2/3 127/2/3 126/2/3
f 131/2/3 129/2/3 130/2/3
f 132/2/3 129/2/3 131/2/3
f 134/2/3 125/2/3 122/2/3
f 136/2/3 130/2/3 126/2/3
f 137/2/3 135/2/3 134/2/3
f 137/2/3 134/2/3 122/2/3
f 138/2/3 135/2/3 137/2/3
f 140/2/3 135/2/3 138/2/3
f 141/2/3 135/2/3 140/2/3
f 141/2/3 140/2/3 139/2/3
f 142/4/3 136/4/3 135/4/3
f 142/2/3 135/2/3 141/2/3
f 143/2/3 130/2/3 136/2/3
f 143/4/3 136/4/3 142/4/3
f 144/2/3 130/2/3 143/2/3
f 145/2/3 132/2/3 131/2/3
f 146/4/3 133/4/3 132/4/3
f 146/2/3 132/2/3 145/2/3
f 147/4/3 133/4/3 146/4/3
f 148/2/3 141/2/3 139/2/3
f 149/2/3 145/2/3 144/2/3
f 149/2/3 144/2/3 143/2/3
f 149/2/3 146/2/3 145/2/3
f 150/2/3 146/2/3 149/2/3
f 151/2/3 146/2/3 150/2/3
f 152/2/3 146/2/3 151/2/3
f 153/2/3 148/2/3 139/2/3
f 153/2/3 149/2/3 148/2/3
f 153/2/3 150/2/3 149/2/3
f 154/4/3 151/4/3 150/4/3
f 154/2/3 150/2/3 153/2/3
f 155/4/3 151/4/3 154/4/3
f 160/6/3 157/6/3 156/6/3
f 161/6/3 157/6/3 160/6/3
f 164/3/3 159/3/3 158/3/3
f 165/3/3 159/3/3 164/3/3
f 166/7/3 163/7/3 162/7/3
f 167/7/3 163/7/3 166/7/3
f 172/5/3 167/5/3 166/5/3
f 173/7/3 163/7/3 167/7/3
f 173/5/3 167/5/3 172/5/3
f 174/7/3 173/7/3 172/7/3
f 175/7/3 163/7/3 173/7/3
f 175/7/3 173/7/3 174/7/3
f 176/2/3 171/2/3 170/2/3
f 177/2/3 171/2/3 176/2/3
f 178/5/3 175/5/3 174/5/3
f 179/7/3 163/7/3 175/7/3
f 179/5/3 175/5/3 178/5/3
f 180/7/3 179/7/3 178/7/3
f 181/7/3 163/7/3 179/7/3
f 181/7/3 179/7/3 180/7/3
f 182/2/3 169/2/3 168/2/3
f 183/2/3 169/2/3 182/2/3
f 186/5/3 181/5/3 180/5/3
f 187/7/3 163/7/3 181/7/3
f 187/5/3 181/5/3 186/5/3
f 188/7/3 163/7/3 187/7/3
f 191/3/3 190/3/3 189/3/3
f 192/3/3 190/3/3 191/3/3
f 193/6/3 185/6/3 184/6/3
f 194/6/3 185/6/3 193/6/3
f 197/6/3 196/6/3 195/6/3
f 198/6/3 196/6/3 197/6/3
f 201/6/3 200/6/3 199/6/3
f 202/6/3 200/6/3 201/6/3
f 203/6/4 204/6/4 205/6/4
f 205/6/4 204/6/4 206/6/4
f 207/6/4 208/6/4 209/6/4
f 209/6/4 208/6/4 210/6/4
f 211/6/4 212/6/4 213/6/4
f 213/6/4 212/6/4 214/6/4
f 215/6/4 216/6/4 217/6/4
f 217/6/4 216/6/4 218/6/4
f 219/2/4 220/2/4 221/2/4
f 221/2/4 222/2/4 224/2/4
f 222/3/4 223/3/4 224/3/4
f 224/3/4 223/3/4 225/3/4
f 224/2/4 225/2/4 226/2/4
f 224/2/4 226/2/4 228/2/4
f 226/2/4 227/2/4 228/2/4
f 228/2/4 227/2/4 229/2/4
f 221/2/4 224/2/4 230/2/4
f 224/2/4 228/2/4 230/2/4
f 230/2/4 228/2/4 231/2/4
f 219/2/4 221/2/4 232/2/4
f 221/2/4 230/2/4 232/2/4
f 230/3/4 231/3/4 233/3/4
f 232/2/4 230/2/4 233/2/4
f 233/3/4 231/3/4 234/3/4
f 219/2/4 232/2/4 235/2/4
f 235/2/4 232/2/4 236/2/4
f 241/6/5 238/6/5 237/6/5
f 242/6/5 238/6/5 241/6/5
f 243/6/5 240/6/5 239/6/5
f 244/6/5 240/6/5 243/6/5
f 249/6/5 246/6/5 245/6/5
f 250/6/5 246/6/5 249/6/5
f 251/6/5 248/6/5 247/6/5
f 252/6/5 248/6/5 251/6/5
f 257/2/5 254/2/5 253/2/5
f 258/2/5 254/2/5 257/2/5
f 259/2/5 254/2/5 258/2/5
f 260/2/5 256/2/5 255/2/5
f 261/2/5 256/2/5 260/2/5
f 262/2/5 256/2/5 261/2/5
f 264/2/5 259/2/5 258/2/5
f 264/2/5 261/2/5 260/2/5
f 264/2/5 260/2/5 259/2/5
f 265/2/5 261/2/5 264/2/5
f 267/2/5 264/2/5 263/2/5
f 267/2/5 266/2/5 265/2/5
f 267/2/5 265/2/5 264/2/5
f 268/2/5 266/2/5 267/2/5
f 269/2/5 266/2/5 268/2/5
f 270/2/5 266/2/5 269/2/5
f 272/2/5 269/2/5 268/2/5
f 273/2/5 269/2/5 272/2/5
f 275/2/5 272/2/5 271/2/5
f 275/2/5 274/2/5 273/2/5
f 275/2/5 273/2/5 272/2/5
f 276/2/5 274/2/5 275/2/5
f 281/3/5 278/3/5 277/3/5
f 282/3/5 278/3/5 281/3/5
f 285/3/5 280/3/5 279/3/5
f 286/3/5 280/3/5 285/3/5
f 287/2/5 284/2/5 283/2/5
f 288/2/5 284/2/5 287/2/5
f 291/2/5 290/2/5 289/2/5
f 292/2/5 290/2/5 291/2/5
f 293/3/6 294/3/6 297/3/6
f 297/3/6 294/3/6 298/3/6
f 295/3/6 296/3/6 299/3/6
f 299/3/6 296/3/6 300/3/6
f 301/2/6 302/2/6 303/2/6
f 303/2/6 302/2/6 304/2/6
f 304/2/6 302/2/6 305/2/6
f 305/2/6 302/2/6 306/2/6
f 306/2/6 302/2/6 307/2/6
f 307/2/6 302/2/6 308/2/6
f 308/2/6 302/2/6 309/2/6
f 310/4/6 311/4/6 314/4/6
f 314/4/6 311/4/6 315/4/6
f 312/4/6 313/4/6 316/4/6
f 316/4/6 313/4/6 317/4/6
f 314/2/6 315/2/6 318/2/6
f 318/2/6 315/2/6 319/2/6
f 316/2/6 317/2/6 320/2/6
f 320/2/6 317/2/6 321/2/6
f 322/2/6 323/2/6 326/2/6
f 326/2/6 323/2/6 327/2/6
f 324/2/6 325/2/6 328/2/6
f 328/2/6 325/2/6 329/2/6
f 330/4/6 331/4/6 333/4/6
f 333/4/6 331/4/6 334/4/6
f 334/4/6 331/4/6 335/4/6
f 335/4/6 331/4/6 336/4/6
f 332/3/6 333/3/6 338/3/6
f 333/2/6 334/2/6 339/2/6
f 338/3/6 333/3/6 339/3/6
f 339/2/6 334/2/6 340/2/6
f 335/2/6 336/2/6 341/2/6
f 336/3/6 337/3/6 342/3/6
f 341/2/6 336/2/6 342/2/6
f 342/3/6 337/3/6 343/3/6
f 344/2/6 345/2/6 346/2/6
f 346/2/6 345/2/6 347/2/6
