# MagicaVoxel @ Ephtracy

# group
o 

# material
mtllib toycar.mtl
usemtl palette

# normals
vn -1 0 0
vn 1 0 0
vn 0 0 1
vn 0 0 -1
vn 0 -1 0
vn 0 1 0

# texcoords
vt 0.146484 0.5
vt 0.431641 0.5
vt 0.615234 0.5
vt 0.955078 0.5
vt 0.958984 0.5

# verts
v 0 2.1 -0.2
v 0 2.1 -0.6
v 0 2.3 -0.2
v 0 2.3 -0.3
v 0 2.3 -0.5
v 0 2.3 -0.6
v 0 2.4 -0.2
v 0 2.4 -0.3
v 0 2.4 -0.5
v 0 2.4 -0.6
v 0.2 2 -0.1
v 0.2 2 -0.3
v 0.2 2 -0.5
v 0.2 2 -0.7
v 0.2 2.1 -0.2
v 0.2 2.1 -0.3
v 0.2 2.1 -0.5
v 0.2 2.1 -0.6
v 0.2 2.2 -0.1
v 0.2 2.2 -0.2
v 0.2 2.2 -0.6
v 0.2 2.2 -0.7
v 0.2 2.3 -0.3
v 0.2 2.3 -0.5
v 0.2 2.4 -0.3
v 0.2 2.4 -0.5
v 0.3 2.4 -0.2
v 0.3 2.4 -0.3
v 0.3 2.4 -0.5
v 0.3 2.4 -0.6
v 0.3 2.5 -0.2
v 0.3 2.5 -0.3
v 0.3 2.5 -0.5
v 0.3 2.5 -0.6
v 0.4 2.1 -0.3
v 0.4 2.1 -0.5
v 0.4 2.2 -0.3
v 0.4 2.2 -0.5
v 0.4 2.5 -0.2
v 0.4 2.5 -0.3
v 0.4 2.5 -0.5
v 0.4 2.5 -0.6
v 0.4 2.6 -0.2
v 0.4 2.6 -0.6
v 0.9 2 -0.1
v 0.9 2 -0.3
v 0.9 2 -0.5
v 0.9 2 -0.7
v 0.9 2.1 -0.2
v 0.9 2.1 -0.3
v 0.9 2.1 -0.5
v 0.9 2.1 -0.6
v 0.9 2.2 -0.1
v 0.9 2.2 -0.2
v 0.9 2.2 -0.6
v 0.9 2.2 -0.7
v 1.1 2.1 -0.3
v 1.1 2.1 -0.5
v 1.1 2.2 -0.3
v 1.1 2.2 -0.5
v 0.2 2.1 -0.3
v 0.2 2.1 -0.5
v 0.2 2.2 -0.3
v 0.2 2.2 -0.5
v 0.4 2 -0.1
v 0.4 2 -0.3
v 0.4 2 -0.5
v 0.4 2 -0.7
v 0.4 2.1 -0.2
v 0.4 2.1 -0.3
v 0.4 2.1 -0.5
v 0.4 2.1 -0.6
v 0.4 2.2 -0.1
v 0.4 2.2 -0.2
v 0.4 2.2 -0.6
v 0.4 2.2 -0.7
v 0.9 2.1 -0.3
v 0.9 2.1 -0.5
v 0.9 2.2 -0.3
v 0.9 2.2 -0.5
v 0.9 2.5 -0.2
v 0.9 2.5 -0.6
v 0.9 2.6 -0.2
v 0.9 2.6 -0.6
v 1 2.3 -0.2
v 1 2.3 -0.6
v 1 2.5 -0.2
v 1 2.5 -0.6
v 1.1 2 -0.1
v 1.1 2 -0.3
v 1.1 2 -0.5
v 1.1 2 -0.7
v 1.1 2.1 -0.2
v 1.1 2.1 -0.3
v 1.1 2.1 -0.5
v 1.1 2.1 -0.6
v 1.1 2.2 -0.1
v 1.1 2.2 -0.2
v 1.1 2.2 -0.6
v 1.1 2.2 -0.7
v 1.2 2.1 -0.2
v 1.2 2.1 -0.6
v 1.2 2.2 -0.2
v 1.2 2.2 -0.3
v 1.2 2.2 -0.5
v 1.2 2.2 -0.6
v 1.2 2.3 -0.2
v 1.2 2.3 -0.3
v 1.2 2.3 -0.5
v 1.2 2.3 -0.6
v 0.2 2 -0.1
v 0.2 2.2 -0.1
v 0.4 2 -0.1
v 0.4 2.2 -0.1
v 0.9 2 -0.1
v 0.9 2.2 -0.1
v 1.1 2 -0.1
v 1.1 2.2 -0.1
v 0 2.1 -0.2
v 0 2.3 -0.2
v 0 2.4 -0.2
v 0.1 2.3 -0.2
v 0.1 2.4 -0.2
v 0.2 2.1 -0.2
v 0.2 2.2 -0.2
v 0.3 2.4 -0.2
v 0.3 2.5 -0.2
v 0.4 2.1 -0.2
v 0.4 2.2 -0.2
v 0.4 2.3 -0.2
v 0.4 2.4 -0.2
v 0.4 2.5 -0.2
v 0.4 2.6 -0.2
v 0.5 2.4 -0.2
v 0.5 2.5 -0.2
v 0.7 2.3 -0.2
v 0.7 2.5 -0.2
v 0.8 2.3 -0.2
v 0.8 2.5 -0.2
v 0.9 2.1 -0.2
v 0.9 2.2 -0.2
v 0.9 2.5 -0.2
v 0.9 2.6 -0.2
v 1 2.3 -0.2
v 1 2.5 -0.2
v 1.1 2.1 -0.2
v 1.1 2.2 -0.2
v 1.1 2.3 -0.2
v 1.2 2.1 -0.2
v 1.2 2.2 -0.2
v 1.2 2.3 -0.2
v 0 2.3 -0.5
v 0 2.4 -0.5
v 0.1 2.3 -0.5
v 0.1 2.4 -0.5
v 0.2 2 -0.5
v 0.2 2.1 -0.5
v 0.2 2.2 -0.5
v 0.2 2.3 -0.5
v 0.2 2.4 -0.5
v 0.4 2 -0.5
v 0.4 2.1 -0.5
v 0.4 2.2 -0.5
v 0.9 2 -0.5
v 0.9 2.1 -0.5
v 0.9 2.2 -0.5
v 1.1 2 -0.5
v 1.1 2.1 -0.5
v 1.1 2.2 -0.5
v 0 2.3 -0.3
v 0 2.4 -0.3
v 0.1 2.3 -0.3
v 0.1 2.4 -0.3
v 0.2 2 -0.3
v 0.2 2.1 -0.3
v 0.2 2.2 -0.3
v 0.2 2.3 -0.3
v 0.2 2.4 -0.3
v 0.4 2 -0.3
v 0.4 2.1 -0.3
v 0.4 2.2 -0.3
v 0.9 2 -0.3
v 0.9 2.1 -0.3
v 0.9 2.2 -0.3
v 1.1 2 -0.3
v 1.1 2.1 -0.3
v 1.1 2.2 -0.3
v 0 2.1 -0.6
v 0 2.3 -0.6
v 0 2.4 -0.6
v 0.1 2.3 -0.6
v 0.1 2.4 -0.6
v 0.2 2.1 -0.6
v 0.2 2.2 -0.6
v 0.3 2.4 -0.6
v 0.3 2.5 -0.6
v 0.4 2.1 -0.6
v 0.4 2.2 -0.6
v 0.4 2.3 -0.6
v 0.4 2.4 -0.6
v 0.4 2.5 -0.6
v 0.4 2.6 -0.6
v 0.5 2.4 -0.6
v 0.5 2.5 -0.6
v 0.7 2.3 -0.6
v 0.7 2.5 -0.6
v 0.8 2.3 -0.6
v 0.8 2.5 -0.6
v 0.9 2.1 -0.6
v 0.9 2.2 -0.6
v 0.9 2.5 -0.6
v 0.9 2.6 -0.6
v 1 2.3 -0.6
v 1 2.5 -0.6
v 1.1 2.1 -0.6
v 1.1 2.2 -0.6
v 1.1 2.3 -0.6
v 1.2 2.1 -0.6
v 1.2 2.2 -0.6
v 1.2 2.3 -0.6
v 0.2 2 -0.7
v 0.2 2.2 -0.7
v 0.4 2 -0.7
v 0.4 2.2 -0.7
v 0.9 2 -0.7
v 0.9 2.2 -0.7
v 1.1 2 -0.7
v 1.1 2.2 -0.7
v 0.2 2 -0.1
v 0.4 2 -0.1
v 0.9 2 -0.1
v 1.1 2 -0.1
v 0.2 2 -0.3
v 0.4 2 -0.3
v 0.9 2 -0.3
v 1.1 2 -0.3
v 0.2 2 -0.5
v 0.4 2 -0.5
v 0.9 2 -0.5
v 1.1 2 -0.5
v 0.2 2 -0.7
v 0.4 2 -0.7
v 0.9 2 -0.7
v 1.1 2 -0.7
v 0 2.1 -0.2
v 0.2 2.1 -0.2
v 0.4 2.1 -0.2
v 0.9 2.1 -0.2
v 1.1 2.1 -0.2
v 1.2 2.1 -0.2
v 0.2 2.1 -0.3
v 0.4 2.1 -0.3
v 0.9 2.1 -0.3
v 1.1 2.1 -0.3
v 0.2 2.1 -0.5
v 0.4 2.1 -0.5
v 0.9 2.1 -0.5
v 1.1 2.1 -0.5
v 0 2.1 -0.6
v 0.2 2.1 -0.6
v 0.4 2.1 -0.6
v 0.9 2.1 -0.6
v 1.1 2.1 -0.6
v 1.2 2.1 -0.6
v 0.2 2.2 -0.3
v 0.4 2.2 -0.3
v 0.9 2.2 -0.3
v 1.1 2.2 -0.3
v 0.2 2.2 -0.5
v 0.4 2.2 -0.5
v 0.9 2.2 -0.5
v 1.1 2.2 -0.5
v 0.2 2.2 -0.1
v 0.4 2.2 -0.1
v 0.9 2.2 -0.1
v 1.1 2.2 -0.1
v 0.2 2.2 -0.2
v 0.4 2.2 -0.2
v 0.9 2.2 -0.2
v 1.1 2.2 -0.2
v 0.2 2.2 -0.6
v 0.4 2.2 -0.6
v 0.9 2.2 -0.6
v 1.1 2.2 -0.6
v 0.2 2.2 -0.7
v 0.4 2.2 -0.7
v 0.9 2.2 -0.7
v 1.1 2.2 -0.7
v 1 2.3 -0.2
v 1.1 2.3 -0.2
v 1.2 2.3 -0.2
v 0 2.3 -0.3
v 0.1 2.3 -0.3
v 0.2 2.3 -0.3
v 1.1 2.3 -0.3
v 1.2 2.3 -0.3
v 0 2.3 -0.5
v 0.1 2.3 -0.5
v 0.2 2.3 -0.5
v 1.1 2.3 -0.5
v 1.2 2.3 -0.5
v 1 2.3 -0.6
v 1.1 2.3 -0.6
v 1.2 2.3 -0.6
v 0 2.4 -0.2
v 0.1 2.4 -0.2
v 0.3 2.4 -0.2
v 0 2.4 -0.3
v 0.1 2.4 -0.3
v 0.2 2.4 -0.3
v 0.3 2.4 -0.3
v 0 2.4 -0.5
v 0.1 2.4 -0.5
v 0.2 2.4 -0.5
v 0.3 2.4 -0.5
v 0 2.4 -0.6
v 0.1 2.4 -0.6
v 0.3 2.4 -0.6
v 0.3 2.5 -0.2
v 0.4 2.5 -0.2
v 0.9 2.5 -0.2
v 1 2.5 -0.2
v 0.3 2.5 -0.3
v 0.4 2.5 -0.3
v 0.3 2.5 -0.5
v 0.4 2.5 -0.5
v 0.3 2.5 -0.6
v 0.4 2.5 -0.6
v 0.9 2.5 -0.6
v 1 2.5 -0.6
v 0.4 2.6 -0.2
v 0.9 2.6 -0.2
v 0.4 2.6 -0.6
v 0.9 2.6 -0.6

# faces
f 3/3/1 2/3/1 1/3/1
f 4/3/1 2/3/1 3/3/1
f 5/3/1 2/3/1 4/3/1
f 6/3/1 2/3/1 5/3/1
f 7/1/1 4/1/1 3/1/1
f 8/1/1 4/1/1 7/1/1
f 9/1/1 6/1/1 5/1/1
f 10/1/1 6/1/1 9/1/1
f 15/4/1 12/4/1 11/4/1
f 16/4/1 12/4/1 15/4/1
f 17/4/1 14/4/1 13/4/1
f 18/4/1 14/4/1 17/4/1
f 19/4/1 15/4/1 11/4/1
f 20/4/1 15/4/1 19/4/1
f 21/4/1 14/4/1 18/4/1
f 22/4/1 14/4/1 21/4/1
f 25/5/1 24/5/1 23/5/1
f 26/5/1 24/5/1 25/5/1
f 31/3/1 28/3/1 27/3/1
f 32/5/1 29/5/1 28/5/1
f 32/3/1 28/3/1 31/3/1
f 33/3/1 30/3/1 29/3/1
f 33/5/1 29/5/1 32/5/1
f 34/3/1 30/3/1 33/3/1
f 37/3/1 36/3/1 35/3/1
f 38/3/1 36/3/1 37/3/1
f 43/3/1 41/3/1 40/3/1
f 43/3/1 42/3/1 41/3/1
f 43/3/1 40/3/1 39/3/1
f 44/3/1 42/3/1 43/3/1
f 49/4/1 46/4/1 45/4/1
f 50/4/1 46/4/1 49/4/1
f 51/4/1 48/4/1 47/4/1
f 52/4/1 48/4/1 51/4/1
f 53/4/1 49/4/1 45/4/1
f 54/4/1 49/4/1 53/4/1
f 55/4/1 48/4/1 52/4/1
f 56/4/1 48/4/1 55/4/1
f 59/3/1 58/3/1 57/3/1
f 60/3/1 58/3/1 59/3/1
f 61/3/2 62/3/2 63/3/2
f 63/3/2 62/3/2 64/3/2
f 65/4/2 66/4/2 69/4/2
f 69/4/2 66/4/2 70/4/2
f 67/4/2 68/4/2 71/4/2
f 71/4/2 68/4/2 72/4/2
f 65/4/2 69/4/2 73/4/2
f 73/4/2 69/4/2 74/4/2
f 72/4/2 68/4/2 75/4/2
f 75/4/2 68/4/2 76/4/2
f 77/3/2 78/3/2 79/3/2
f 79/3/2 78/3/2 80/3/2
f 81/3/2 82/3/2 83/3/2
f 83/3/2 82/3/2 84/3/2
f 85/5/2 86/5/2 87/5/2
f 87/5/2 86/5/2 88/5/2
f 89/4/2 90/4/2 93/4/2
f 93/4/2 90/4/2 94/4/2
f 91/4/2 92/4/2 95/4/2
f 95/4/2 92/4/2 96/4/2
f 89/4/2 93/4/2 97/4/2
f 97/4/2 93/4/2 98/4/2
f 96/4/2 92/4/2 99/4/2
f 99/4/2 92/4/2 100/4/2
f 101/3/2 102/3/2 103/3/2
f 103/3/2 102/3/2 104/3/2
f 104/3/2 102/3/2 105/3/2
f 105/3/2 102/3/2 106/3/2
f 103/2/2 104/2/2 107/2/2
f 104/3/2 105/3/2 108/3/2
f 107/2/2 104/2/2 108/2/2
f 105/2/2 106/2/2 109/2/2
f 108/3/2 105/3/2 109/3/2
f 109/2/2 106/2/2 110/2/2
f 113/4/3 112/4/3 111/4/3
f 114/4/3 112/4/3 113/4/3
f 117/4/3 116/4/3 115/4/3
f 118/4/3 116/4/3 117/4/3
f 122/3/3 120/3/3 119/3/3
f 122/1/3 121/1/3 120/1/3
f 123/1/3 121/1/3 122/1/3
f 124/3/3 122/3/3 119/3/3
f 124/3/3 123/3/3 122/3/3
f 125/3/3 123/3/3 124/3/3
f 126/3/3 123/3/3 125/3/3
f 129/3/3 126/3/3 125/3/3
f 129/3/3 127/3/3 126/3/3
f 130/3/3 127/3/3 129/3/3
f 131/3/3 127/3/3 130/3/3
f 132/3/3 127/3/3 131/3/3
f 134/5/3 131/5/3 130/5/3
f 134/3/3 133/3/3 132/3/3
f 134/3/3 132/3/3 131/3/3
f 135/3/3 133/3/3 134/3/3
f 136/3/3 129/3/3 128/3/3
f 136/3/3 130/3/3 129/3/3
f 136/5/3 135/5/3 134/5/3
f 136/5/3 134/5/3 130/5/3
f 137/3/3 133/3/3 135/3/3
f 137/5/3 135/5/3 136/5/3
f 138/3/3 136/3/3 128/3/3
f 138/3/3 137/3/3 136/3/3
f 139/3/3 133/3/3 137/3/3
f 139/3/3 137/3/3 138/3/3
f 140/3/3 138/3/3 128/3/3
f 141/3/3 138/3/3 140/3/3
f 142/3/3 133/3/3 139/3/3
f 142/5/3 139/5/3 138/5/3
f 143/3/3 133/3/3 142/3/3
f 144/3/3 138/3/3 141/3/3
f 144/5/3 142/5/3 138/5/3
f 145/5/3 142/5/3 144/5/3
f 147/3/3 144/3/3 141/3/3
f 148/3/3 144/3/3 147/3/3
f 149/3/3 147/3/3 146/3/3
f 150/2/3 148/2/3 147/2/3
f 150/3/3 147/3/3 149/3/3
f 151/2/3 148/2/3 150/2/3
f 154/1/3 153/1/3 152/1/3
f 155/1/3 153/1/3 154/1/3
f 159/3/3 155/3/3 154/3/3
f 160/3/3 155/3/3 159/3/3
f 161/4/3 158/4/3 157/4/3
f 161/4/3 157/4/3 156/4/3
f 162/4/3 158/4/3 161/4/3
f 163/4/3 158/4/3 162/4/3
f 167/4/3 165/4/3 164/4/3
f 167/4/3 166/4/3 165/4/3
f 168/4/3 166/4/3 167/4/3
f 169/4/3 166/4/3 168/4/3
f 170/1/4 171/1/4 172/1/4
f 172/1/4 171/1/4 173/1/4
f 172/3/4 173/3/4 177/3/4
f 177/3/4 173/3/4 178/3/4
f 175/4/4 176/4/4 179/4/4
f 174/4/4 175/4/4 179/4/4
f 179/4/4 176/4/4 180/4/4
f 180/4/4 176/4/4 181/4/4
f 182/4/4 183/4/4 185/4/4
f 183/4/4 184/4/4 185/4/4
f 185/4/4 184/4/4 186/4/4
f 186/4/4 184/4/4 187/4/4
f 188/3/4 189/3/4 191/3/4
f 189/1/4 190/1/4 191/1/4
f 191/1/4 190/1/4 192/1/4
f 188/3/4 191/3/4 193/3/4
f 191/3/4 192/3/4 193/3/4
f 193/3/4 192/3/4 194/3/4
f 194/3/4 192/3/4 195/3/4
f 194/3/4 195/3/4 198/3/4
f 195/3/4 196/3/4 198/3/4
f 198/3/4 196/3/4 199/3/4
f 199/3/4 196/3/4 200/3/4
f 200/3/4 196/3/4 201/3/4
f 199/5/4 200/5/4 203/5/4
f 201/3/4 202/3/4 203/3/4
f 200/3/4 201/3/4 203/3/4
f 203/3/4 202/3/4 204/3/4
f 197/3/4 198/3/4 205/3/4
f 198/3/4 199/3/4 205/3/4
f 203/5/4 204/5/4 205/5/4
f 199/5/4 203/5/4 205/5/4
f 204/3/4 202/3/4 206/3/4
f 205/5/4 204/5/4 206/5/4
f 197/3/4 205/3/4 207/3/4
f 205/3/4 206/3/4 207/3/4
f 206/3/4 202/3/4 208/3/4
f 207/3/4 206/3/4 208/3/4
f 197/3/4 207/3/4 209/3/4
f 209/3/4 207/3/4 210/3/4
f 208/3/4 202/3/4 211/3/4
f 207/5/4 208/5/4 211/5/4
f 211/3/4 202/3/4 212/3/4
f 210/3/4 207/3/4 213/3/4
f 207/5/4 211/5/4 213/5/4
f 213/5/4 211/5/4 214/5/4
f 210/3/4 213/3/4 216/3/4
f 216/3/4 213/3/4 217/3/4
f 215/3/4 216/3/4 218/3/4
f 216/2/4 217/2/4 219/2/4
f 218/3/4 216/3/4 219/3/4
f 219/2/4 217/2/4 220/2/4
f 221/4/4 222/4/4 223/4/4
f 223/4/4 222/4/4 224/4/4
f 225/4/4 226/4/4 227/4/4
f 227/4/4 226/4/4 228/4/4
f 233/4/5 230/4/5 229/4/5
f 234/4/5 230/4/5 233/4/5
f 235/4/5 232/4/5 231/4/5
f 236/4/5 232/4/5 235/4/5
f 241/4/5 238/4/5 237/4/5
f 242/4/5 238/4/5 241/4/5
f 243/4/5 240/4/5 239/4/5
f 244/4/5 240/4/5 243/4/5
f 251/3/5 246/3/5 245/3/5
f 252/3/5 248/3/5 247/3/5
f 253/3/5 248/3/5 252/3/5
f 254/3/5 250/3/5 249/3/5
f 255/3/5 251/3/5 245/3/5
f 256/3/5 253/3/5 252/3/5
f 257/3/5 253/3/5 256/3/5
f 258/3/5 250/3/5 254/3/5
f 259/3/5 255/3/5 245/3/5
f 260/3/5 255/3/5 259/3/5
f 261/3/5 257/3/5 256/3/5
f 262/3/5 257/3/5 261/3/5
f 263/3/5 250/3/5 258/3/5
f 264/3/5 250/3/5 263/3/5
f 269/3/5 266/3/5 265/3/5
f 270/3/5 266/3/5 269/3/5
f 271/3/5 268/3/5 267/3/5
f 272/3/5 268/3/5 271/3/5
f 273/4/6 274/4/6 277/4/6
f 277/4/6 274/4/6 278/4/6
f 275/4/6 276/4/6 279/4/6
f 279/4/6 276/4/6 280/4/6
f 281/4/6 282/4/6 285/4/6
f 285/4/6 282/4/6 286/4/6
f 283/4/6 284/4/6 287/4/6
f 287/4/6 284/4/6 288/4/6
f 289/3/6 290/3/6 295/3/6
f 290/2/6 291/2/6 295/2/6
f 295/2/6 291/2/6 296/2/6
f 293/3/6 294/3/6 297/3/6
f 292/3/6 293/3/6 297/3/6
f 297/3/6 294/3/6 298/3/6
f 298/3/6 294/3/6 299/3/6
f 295/3/6 296/3/6 300/3/6
f 289/3/6 295/3/6 300/3/6
f 300/3/6 296/3/6 301/3/6
f 289/3/6 300/3/6 302/3/6
f 300/2/6 301/2/6 303/2/6
f 302/3/6 300/3/6 303/3/6
f 303/2/6 301/2/6 304/2/6
f 305/1/6 306/1/6 308/1/6
f 306/3/6 307/3/6 309/3/6
f 308/1/6 306/1/6 309/1/6
f 309/3/6 307/3/6 310/3/6
f 310/3/6 307/3/6 311/3/6
f 310/5/6 311/5/6 314/5/6
f 314/5/6 311/5/6 315/5/6
f 312/1/6 313/1/6 316/1/6
f 313/3/6 314/3/6 317/3/6
f 316/1/6 313/1/6 317/1/6
f 314/3/6 315/3/6 317/3/6
f 317/3/6 315/3/6 318/3/6
f 319/3/6 320/3/6 323/3/6
f 323/3/6 320/3/6 324/3/6
f 323/5/6 324/5/6 325/5/6
f 325/5/6 324/5/6 326/5/6
f 325/3/6 326/3/6 327/3/6
f 327/3/6 326/3/6 328/3/6
f 321/5/6 322/5/6 329/5/6
f 329/5/6 322/5/6 330/5/6
f 331/3/6 332/3/6 333/3/6
f 333/3/6 332/3/6 334/3/6
